<svg width="1239" height="142" viewBox="0 0 1239 142" fill="none" xmlns="http://www.w3.org/2000/svg">
<path d="M18.5157 102.418L16.5986 100.474L16.9407 90.8241C16.9826 90.0767 16.9561 89.4698 16.8612 89.0034C16.7664 88.537 16.6342 88.1561 16.4646 87.8608C16.3074 87.5533 16.1314 87.3008 15.9366 87.1034C15.4254 86.5851 14.857 86.3667 14.2313 86.4482C13.6058 86.5052 12.9537 86.8684 12.275 87.5379C11.732 88.0734 11.3295 88.6774 11.0675 89.3497C10.8179 90.0098 10.7517 90.7203 10.869 91.481L7.29716 92.2287C7.06046 91.0013 7.17335 89.7335 7.63584 88.4252C8.09833 87.1169 8.90957 85.8907 10.0696 84.7465C11.0321 83.7971 12.0295 83.1298 13.0617 82.7447C14.0941 82.3351 15.0877 82.2193 16.0425 82.3975C17.0097 82.5635 17.8827 83.0414 18.6618 83.8311C19.0756 84.2507 19.4339 84.7251 19.7367 85.2542C20.0397 85.7588 20.2559 86.3976 20.3854 87.1707C20.5273 87.9316 20.5758 88.8941 20.531 90.0582L20.2371 98.0537L18.586 97.5276L25.8978 90.3157L28.3078 92.7591L18.5157 102.418ZM26.5323 89.142L24.5422 87.1243L22.5442 72.8804L25.691 69.7765L27.8186 83.8926L25.9363 84.9093L36.1357 74.8491L38.5458 77.2925L26.5323 89.142ZM36.1948 84.9797L33.5109 82.2587L31.1934 79.724L28.8015 77.2991L31.6337 74.5056L39.1195 82.095L36.1948 84.9797ZM52.956 68.8854C51.8701 69.9566 50.7616 70.7334 49.6307 71.2159C48.4876 71.6861 47.3956 71.8502 46.3547 71.7082C45.3017 71.5539 44.3796 71.0757 43.5884 70.2735C42.7972 69.4714 42.3499 68.5736 42.2464 67.5801C42.1431 66.562 42.3587 65.5094 42.8932 64.4222C43.4156 63.3227 44.2259 62.2313 45.3242 61.148C46.4348 60.0525 47.5434 59.2512 48.65 58.744C49.7568 58.2123 50.8123 58.0112 51.8164 58.1407C52.8208 58.2456 53.7185 58.6991 54.5097 59.5013C55.3009 60.3034 55.7664 61.232 55.9062 62.287C56.0339 63.3297 55.8486 64.4255 55.3505 65.5742C54.8525 66.6984 54.0543 67.8021 52.956 68.8854ZM50.7833 66.6827C51.5361 65.9402 51.9641 65.1893 52.0674 64.4301C52.183 63.6587 51.9548 62.983 51.3827 62.403C50.8106 61.823 50.1442 61.5917 49.3835 61.7091C48.6229 61.8019 47.8662 62.2195 47.1135 62.962C46.373 63.6924 45.9512 64.4371 45.8479 65.1963C45.7325 65.9432 45.9608 66.6066 46.5329 67.1866C47.105 67.7666 47.7713 68.0102 48.5319 67.9174C49.2924 67.8246 50.0429 67.413 50.7833 66.6827ZM46.8213 62.6659C45.8218 63.6518 44.8117 64.3803 43.7911 64.8513C42.7829 65.3101 41.8134 65.4873 40.8826 65.3829C39.952 65.2539 39.1276 64.8254 38.4095 64.0973C37.6548 63.3322 37.2195 62.4712 37.1035 61.5144C36.9753 60.5452 37.1415 59.5413 37.6022 58.5026C38.0506 57.4516 38.7623 56.4453 39.7372 55.4837C40.7368 54.4978 41.7589 53.7939 42.8037 53.3721C43.8486 52.9258 44.8547 52.7734 45.822 52.9148C46.7895 53.0318 47.6505 53.4728 48.4052 54.2379C49.1234 54.966 49.5343 55.8023 49.6382 56.7468C49.7422 57.6668 49.5517 58.6338 49.0667 59.6477C48.5817 60.6617 47.8332 61.6678 46.8213 62.6659ZM45.0868 60.9074C45.7162 60.2866 46.0698 59.6578 46.1477 59.021C46.238 58.372 46.0397 57.8007 45.5528 57.3071C45.0416 56.7888 44.4547 56.5764 43.7922 56.6699C43.142 56.7512 42.5146 57.0901 41.9099 57.6865C41.3176 58.2708 40.9763 58.8874 40.886 59.5364C40.7958 60.1854 41.0063 60.769 41.5175 61.2873C42.0044 61.7809 42.5667 61.9932 43.2045 61.924C43.8424 61.8548 44.4698 61.516 45.0868 60.9074ZM65.6017 56.4123C64.417 57.5809 63.1431 58.3504 61.7801 58.721C60.4294 59.0794 59.0509 59.0148 57.6448 58.5271C56.2386 58.0395 54.8478 57.0984 53.4723 55.7039C51.9995 54.2107 51.0295 52.672 50.5624 51.0876C50.1076 49.4911 50.106 47.9345 50.5577 46.4178C51.0217 44.8888 51.9016 43.4854 53.1973 42.2073C53.8884 41.5257 54.6216 40.9485 55.3971 40.4758C56.1725 40.0031 56.9346 39.6897 57.6833 39.5355L58.7454 42.8337C58.1441 42.9399 57.5972 43.1506 57.1047 43.4659C56.6001 43.7689 56.1257 44.1395 55.6814 44.5777C54.5585 45.6853 54.0047 46.9011 54.0201 48.2249C54.0355 49.5487 54.7005 50.8771 56.0151 52.2098C56.2342 52.4319 56.4776 52.6788 56.7454 52.9502C57.0255 53.2096 57.3304 53.4445 57.6598 53.6552L56.06 53.6993C55.8198 52.9868 55.7265 52.2875 55.7803 51.6015C55.8218 50.9031 56.0165 50.2242 56.3642 49.5647C56.7121 48.8808 57.1946 48.2345 57.8116 47.6259C58.6507 46.7982 59.5678 46.2223 60.5628 45.8982C61.5579 45.5741 62.551 45.5196 63.5424 45.7348C64.546 45.9378 65.4495 46.4465 66.2529 47.261C67.1171 48.1372 67.6496 49.1214 67.8505 50.2136C68.0515 51.2813 67.9583 52.3593 67.5709 53.4475C67.1836 54.5112 66.5272 55.4994 65.6017 56.4123ZM63.2259 54.3369C63.6455 53.923 63.9426 53.4838 64.1174 53.0193C64.2924 52.5302 64.3263 52.0463 64.2193 51.5675C64.1123 51.0888 63.8701 50.6581 63.4928 50.2756C62.9085 49.6832 62.2424 49.4151 61.4943 49.4713C60.7464 49.5029 60.0393 49.8474 59.3729 50.5047C58.9287 50.9429 58.6251 51.4127 58.4624 51.9141C58.2874 52.4032 58.2473 52.8931 58.342 53.3841C58.4368 53.8505 58.6729 54.275 59.0502 54.6575C59.4154 55.0277 59.8366 55.2696 60.3138 55.3832C60.7789 55.4845 61.2632 55.4572 61.7668 55.3013C62.2582 55.1331 62.7446 54.8116 63.2259 54.3369ZM77.3878 44.7871C76.2031 45.9556 74.9292 46.7252 73.5662 47.0958C72.2155 47.4542 70.837 47.3896 69.4308 46.9019C68.0246 46.4142 66.6338 45.4732 65.2584 44.0787C63.7856 42.5855 62.8156 41.0467 62.3485 39.4624C61.8937 37.8659 61.8921 36.3093 62.3438 34.7925C62.8078 33.2636 63.6877 31.8601 64.9834 30.5821C65.6745 29.9004 66.4077 29.3233 67.1831 28.8506C67.9586 28.3779 68.7206 28.0644 69.4694 27.9102L70.5314 31.2085C69.9301 31.3147 69.3833 31.5254 68.8908 31.8407C68.3862 32.1437 67.9118 32.5142 67.4675 32.9524C66.3445 34.0601 65.7908 35.2758 65.8062 36.5997C65.8216 37.9235 66.4866 39.2518 67.8012 40.5846C68.0203 40.8067 68.2637 41.0535 68.5315 41.325C68.8116 41.5843 69.1164 41.8193 69.4459 42.0299L67.8461 42.0741C67.6059 41.3615 67.5126 40.6623 67.5663 39.9763C67.6079 39.2779 67.8026 38.599 68.1503 37.9395C68.4982 37.2555 68.9806 36.6092 69.5976 36.0006C70.4368 35.1729 71.3539 34.597 72.3489 34.2729C73.3439 33.9488 74.3371 33.8944 75.3284 34.1095C76.3321 34.3125 77.2356 34.8213 78.039 35.6357C78.9032 36.5119 79.4357 37.4961 79.6366 38.5884C79.8376 39.6561 79.7444 40.734 79.357 41.8222C78.9697 42.8859 78.3133 43.8742 77.3878 44.7871ZM75.0119 42.7116C75.4315 42.2978 75.7287 41.8586 75.9035 41.394C76.0784 40.905 76.1124 40.4211 76.0054 39.9423C75.8984 39.4636 75.6562 39.0329 75.2789 38.6503C74.6946 38.058 74.0284 37.7899 73.2804 37.8461C72.5325 37.8777 71.8254 38.2221 71.159 38.8794C70.7147 39.3176 70.4112 39.7874 70.2484 40.2888C70.0735 40.7779 70.0333 41.2679 70.128 41.7588C70.2229 42.2252 70.459 42.6497 70.8363 43.0323C71.2015 43.4025 71.6227 43.6444 72.0999 43.758C72.565 43.8592 73.0493 43.8319 73.5529 43.676C74.0443 43.5078 74.5307 43.1864 75.0119 42.7116ZM86.2645 41.2173L83.1043 35.5697L85.1547 36.834C84.6241 37.3574 84.0338 37.6352 83.384 37.6675C82.7465 37.6877 82.16 37.4263 81.6244 36.8833C81.0888 36.3403 80.8356 35.738 80.8646 35.0763C80.8937 34.4146 81.1612 33.8343 81.6672 33.3352C82.1855 32.824 82.7755 32.5707 83.4374 32.5752C84.087 32.5674 84.6736 32.8288 85.197 33.3595C85.3552 33.5199 85.5011 33.6925 85.6347 33.8773C85.756 34.0497 85.8893 34.2835 86.0343 34.5787C86.1795 34.8493 86.3424 35.2243 86.523 35.7035L88.097 39.4098L86.2645 41.2173ZM93.7236 28.6742C92.6623 29.721 91.4564 30.3991 90.1061 30.7085C88.7435 31.0056 87.3286 30.8917 85.8614 30.3668C84.3942 29.842 82.9607 28.87 81.5609 27.4508C80.1612 26.0317 79.2089 24.5849 78.7043 23.1107C78.1996 21.6364 78.1113 20.2262 78.4392 18.8802C78.7549 17.5219 79.4435 16.3193 80.5047 15.2725C81.5783 14.2136 82.7903 13.5416 84.1405 13.2568C85.4908 12.9474 86.8996 13.0551 88.3668 13.58C89.8341 14.1048 91.2675 15.0768 92.6673 16.496C94.0671 17.9151 95.0193 19.3618 95.524 20.8361C96.0287 22.3104 96.1231 23.7267 95.8074 25.0851C95.4918 26.4189 94.7972 27.6153 93.7236 28.6742ZM91.2222 26.1383C91.7282 25.6392 92.0263 25.0652 92.1165 24.4162C92.2191 23.7551 92.071 23.0125 91.6722 22.1886C91.2857 21.3524 90.6117 20.4469 89.6501 19.472C88.6885 18.4971 87.7923 17.8107 86.9616 17.4128C86.1432 17.0027 85.4028 16.8444 84.7403 16.9379C84.0901 17.0192 83.512 17.3094 83.0061 17.8085C82.5125 18.2954 82.2144 18.8694 82.1118 19.5306C82.0215 20.1796 82.1696 20.9221 82.5561 21.7582C82.9549 22.5822 83.6351 23.4816 84.5967 24.4565C85.5583 25.4314 86.4483 26.1239 87.2667 26.534C88.0974 26.9319 88.8378 27.0902 89.488 27.0089C90.1505 26.9154 90.7286 26.6252 91.2222 26.1383Z" fill="black"/>
<rect width="70" height="4" transform="translate(0 112.348)" fill="#2F80ED"/>
<g opacity="0.1">
<rect width="70" height="25" transform="translate(0 116.348)" fill="#2F80ED"/>
</g>
<path d="M304.989 103.444L303.072 101.5L303.414 91.8501C303.456 91.1028 303.43 90.4959 303.335 90.0295C303.24 89.5631 303.108 89.1822 302.938 88.8869C302.781 88.5794 302.605 88.3269 302.41 88.1294C301.899 87.6111 301.331 87.3927 300.705 87.4742C300.079 87.5312 299.427 87.8945 298.749 88.5639C298.206 89.0995 297.803 89.7034 297.541 90.3758C297.291 91.0359 297.225 91.7463 297.343 92.5071L293.771 93.2547C293.534 92.0274 293.647 90.7596 294.109 89.4513C294.572 88.143 295.383 86.9168 296.543 85.7726C297.506 84.8232 298.503 84.1559 299.535 83.7708C300.568 83.3611 301.561 83.2454 302.516 83.4236C303.483 83.5895 304.356 84.0674 305.135 84.8572C305.549 85.2768 305.908 85.7511 306.21 86.2803C306.513 86.7849 306.729 87.4237 306.859 88.1968C307.001 88.9577 307.049 89.9202 307.005 91.0842L306.711 99.0798L305.06 98.5537L312.371 91.3417L314.781 93.7851L304.989 103.444ZM320.44 88.6423C319.539 89.5308 318.529 90.2961 317.409 90.938C316.277 91.5676 315.183 91.9645 314.128 92.1289L313.03 88.6833C313.877 88.5543 314.731 88.2721 315.592 87.8368C316.453 87.4014 317.216 86.8551 317.883 86.1978C318.635 85.4554 319.082 84.723 319.221 84.0008C319.361 83.2786 319.175 82.6584 318.664 82.1401C318.177 81.6465 317.603 81.4464 316.94 81.5399C316.278 81.6334 315.521 82.1001 314.669 82.94L313.299 84.2911L311.346 82.3104L310.92 74.6593L312.312 75.4042L305.519 82.1049L303.146 79.6986L312.216 70.7521L314.133 72.6957L314.577 80.3286L312.201 80.9558L313.071 80.0977C314.663 78.5275 316.219 77.6986 317.739 77.611C319.26 77.5234 320.574 78.041 321.681 79.164C322.4 79.8921 322.884 80.7657 323.134 81.7847C323.373 82.7914 323.291 83.8817 322.891 85.0556C322.491 86.2295 321.674 87.4251 320.44 88.6423ZM334.289 74.544L327.86 57.5855L329.916 58.1144L322.937 64.9977L322.882 62.2763L326.351 65.7933L323.686 68.4224L319.194 63.8688L329.579 53.6261L331.496 55.5697L337.547 71.3306L334.289 74.544ZM345.767 63.2219L339.339 46.2633L341.394 46.7922L334.416 53.6755L334.361 50.9541L337.83 54.4712L335.164 57.1003L330.673 52.5467L341.057 42.3039L342.975 44.2476L349.025 60.0085L345.767 63.2219ZM359.49 50.1245C358.59 51.013 357.579 51.7783 356.459 52.4202C355.34 53.0376 354.246 53.4346 353.179 53.6111L352.099 50.1473C352.946 50.0182 353.794 49.7422 354.642 49.319C355.503 48.8837 356.267 48.3374 356.933 47.6801C357.686 46.9376 358.132 46.2052 358.272 45.483C358.412 44.7609 358.22 44.1344 357.697 43.6038C357.368 43.2706 356.989 43.0596 356.561 42.9709C356.133 42.8822 355.629 42.989 355.051 43.2915C354.486 43.5817 353.808 44.1164 353.018 44.8954L349.705 48.1636L343.177 40.2131L351.081 32.4169L353.455 34.8233L346.624 41.5605L346.828 38.6571L351.496 44.315L348.59 44.4789L351.33 41.7767C352.613 40.5108 353.82 39.6734 354.95 39.2644C356.081 38.8309 357.123 38.74 358.078 38.9917C359.032 39.2434 359.886 39.7518 360.641 40.5169C361.396 41.282 361.904 42.1803 362.167 43.2117C362.417 44.2307 362.342 45.3394 361.942 46.5378C361.542 47.7117 360.724 48.9073 359.49 50.1245ZM368.797 46.1303L365.637 40.4827L367.688 41.747C367.157 42.2704 366.567 42.5483 365.917 42.5806C365.279 42.6007 364.693 42.3393 364.157 41.7963C363.622 41.2533 363.368 40.651 363.397 39.9893C363.427 39.3277 363.694 38.7473 364.2 38.2483C364.718 37.737 365.308 37.4837 365.97 37.4882C366.62 37.4804 367.206 37.7419 367.73 38.2725C367.888 38.4329 368.034 38.6055 368.167 38.7903C368.289 38.9627 368.422 39.1965 368.567 39.4917C368.712 39.7623 368.875 40.1373 369.056 40.6165L370.63 44.3228L368.797 46.1303ZM367.887 36.0358L365.897 34.0181L363.899 19.7742L367.046 16.6704L369.173 30.7864L367.291 31.8031L377.49 21.7429L379.9 24.1863L367.887 36.0358ZM377.55 31.8735L374.866 29.1525L372.548 26.6178L370.156 24.1929L372.988 21.3994L380.474 28.9888L377.55 31.8735Z" fill="black"/>
<rect width="70" height="4" transform="translate(286.5 113.348)" fill="#2F80ED"/>
<g opacity="0.1">
<rect width="70" height="24" transform="translate(286.5 117.348)" fill="#2F80ED"/>
</g>
<path d="M591.508 100.425L589.591 98.4815L589.933 88.8316C589.975 88.0843 589.948 87.4774 589.854 87.011C589.759 86.5445 589.627 86.1637 589.457 85.8683C589.3 85.5608 589.124 85.3084 588.929 85.1109C588.418 84.5926 587.849 84.3742 587.224 84.4557C586.598 84.5127 585.946 84.8759 585.267 85.5454C584.724 86.081 584.322 86.6849 584.06 87.3572C583.81 88.0174 583.744 88.7278 583.861 89.4886L580.29 90.2362C580.053 89.0089 580.166 87.7411 580.628 86.4328C581.091 85.1245 581.902 83.8983 583.062 82.7541C584.024 81.8047 585.022 81.1374 586.054 80.7523C587.086 80.3426 588.08 80.2269 589.035 80.405C590.002 80.571 590.875 81.0489 591.654 81.8387C592.068 82.2583 592.426 82.7326 592.729 83.2617C593.032 83.7663 593.248 84.4052 593.378 85.1783C593.52 85.9392 593.568 86.9016 593.523 88.0657L593.229 96.0613L591.578 95.5352L598.89 88.3232L601.3 90.7666L591.508 100.425ZM604.611 87.5013L598.182 70.5427L600.238 71.0716L593.259 77.9549L593.204 75.2335L596.673 78.7506L594.008 81.3797L589.516 76.8261L599.901 66.5833L601.818 68.527L607.869 84.2879L604.611 87.5013ZM621.332 71.0084L614.903 54.0499L616.959 54.5788L609.98 61.4621L609.925 58.7407L613.394 62.2577L610.729 64.8869L606.237 60.3332L616.622 50.0905L618.539 52.0341L624.59 67.795L621.332 71.0084ZM636.017 56.9616C634.931 58.0327 633.823 58.8096 632.692 59.2921C631.549 59.7622 630.457 59.9263 629.416 59.7844C628.363 59.63 627.441 59.1518 626.65 58.3497C625.858 57.5476 625.411 56.6497 625.308 55.6562C625.204 54.6382 625.42 53.5856 625.954 52.4984C626.477 51.3989 627.287 50.3075 628.385 49.2242C629.496 48.1287 630.605 47.3273 631.711 46.8202C632.818 46.2885 633.873 46.0874 634.878 46.2168C635.882 46.3218 636.78 46.7753 637.571 47.5774C638.362 48.3796 638.828 49.3082 638.967 50.3632C639.095 51.4059 638.91 52.5016 638.412 53.6503C637.914 54.7745 637.115 55.8783 636.017 56.9616ZM633.844 54.7588C634.597 54.0164 635.025 53.2655 635.129 52.5063C635.244 51.7349 635.016 51.0592 634.444 50.4792C633.872 49.8992 633.205 49.6679 632.445 49.7852C631.684 49.878 630.927 50.2957 630.175 51.0382C629.434 51.7685 629.012 52.5133 628.909 53.2725C628.794 54.0194 629.022 54.6828 629.594 55.2628C630.166 55.8428 630.832 56.0864 631.593 55.9936C632.354 55.9007 633.104 55.4892 633.844 54.7588ZM629.882 50.742C628.883 51.728 627.873 52.4564 626.852 52.9274C625.844 53.3863 624.875 53.5635 623.944 53.459C623.013 53.3301 622.189 52.9015 621.471 52.1734C620.716 51.4083 620.281 50.5474 620.165 49.5905C620.036 48.6214 620.203 47.6175 620.663 46.5788C621.112 45.5278 621.823 44.5215 622.798 43.5599C623.798 42.574 624.82 41.8701 625.865 41.4483C626.91 41.002 627.916 40.8495 628.883 40.991C629.851 41.108 630.712 41.549 631.466 42.3141C632.184 43.0422 632.595 43.8785 632.699 44.823C632.803 45.7429 632.613 46.7099 632.128 47.7239C631.643 48.7379 630.894 49.7439 629.882 50.742ZM628.148 48.9835C628.777 48.3628 629.131 47.734 629.209 47.0971C629.299 46.4481 629.101 45.8768 628.614 45.3832C628.103 44.8649 627.516 44.6525 626.853 44.746C626.203 44.8274 625.576 45.1662 624.971 45.7627C624.379 46.3469 624.037 46.9636 623.947 47.6125C623.857 48.2615 624.067 48.8452 624.579 49.3635C625.065 49.8571 625.628 50.0693 626.266 50.0002C626.904 49.931 627.531 49.5921 628.148 48.9835ZM648.663 44.4885C647.478 45.657 646.204 46.4266 644.841 46.7972C643.491 47.1556 642.112 47.091 640.706 46.6033C639.3 46.1156 637.909 45.1746 636.533 43.7801C635.061 42.2869 634.091 40.7481 633.624 39.1638C633.169 37.5673 633.167 36.0107 633.619 34.4939C634.083 32.965 634.963 31.5615 636.258 30.2835C636.95 29.6018 637.683 29.0247 638.458 28.552C639.234 28.0793 639.996 27.7658 640.744 27.6116L641.806 30.9099C641.205 31.0161 640.658 31.2268 640.166 31.5421C639.661 31.8451 639.187 32.2156 638.743 32.6538C637.62 33.7615 637.066 34.9772 637.081 36.3011C637.097 37.6249 637.762 38.9532 639.076 40.286C639.295 40.5081 639.539 40.7549 639.807 41.0264C640.087 41.2857 640.391 41.5207 640.721 41.7313L639.121 41.7755C638.881 41.0629 638.788 40.3637 638.841 39.6777C638.883 38.9793 639.078 38.3004 639.425 37.6409C639.773 36.9569 640.256 36.3106 640.873 35.702C641.712 34.8743 642.629 34.2984 643.624 33.9743C644.619 33.6502 645.612 33.5958 646.603 33.8109C647.607 34.0139 648.511 34.5227 649.314 35.3372C650.178 36.2133 650.711 37.1975 650.912 38.2898C651.113 39.3575 651.019 40.4354 650.632 41.5236C650.245 42.5873 649.588 43.5756 648.663 44.4885ZM646.287 42.413C646.707 41.9992 647.004 41.56 647.179 41.0954C647.354 40.6064 647.387 40.1225 647.28 39.6437C647.173 39.165 646.931 38.7343 646.554 38.3518C645.97 37.7594 645.304 37.4913 644.555 37.5475C643.808 37.5791 643.1 37.9236 642.434 38.5808C641.99 39.019 641.686 39.4888 641.523 39.9902C641.349 40.4793 641.308 40.9693 641.403 41.4602C641.498 41.9266 641.734 42.3511 642.111 42.7337C642.477 43.1039 642.898 43.3458 643.375 43.4594C643.84 43.5606 644.324 43.5333 644.828 43.3774C645.319 43.2092 645.806 42.8878 646.287 42.413ZM657.54 40.9187L654.379 35.2711L656.43 36.5354C655.899 37.0588 655.309 37.3366 654.659 37.369C654.022 37.3891 653.435 37.1277 652.899 36.5847C652.364 36.0417 652.111 35.4394 652.14 34.7777C652.169 34.116 652.436 33.5357 652.942 33.0366C653.461 32.5254 654.051 32.2721 654.712 32.2766C655.362 32.2688 655.949 32.5302 656.472 33.0609C656.63 33.2213 656.776 33.3939 656.91 33.5787C657.031 33.7511 657.164 33.9849 657.309 34.2801C657.455 34.5507 657.617 34.9257 657.798 35.4049L659.372 39.1112L657.54 40.9187ZM669.125 24.306C668.224 25.1945 667.213 25.9598 666.094 26.6017C664.962 27.2312 663.868 27.6282 662.813 27.7926L661.715 24.347C662.562 24.218 663.415 23.9358 664.276 23.5005C665.137 23.0651 665.901 22.5188 666.567 21.8615C667.32 21.119 667.767 20.3867 667.906 19.6645C668.046 18.9423 667.86 18.3221 667.349 17.8038C666.862 17.3102 666.288 17.1101 665.625 17.2036C664.963 17.2971 664.206 17.7638 663.354 18.6037L661.984 19.9548L660.031 17.9741L659.605 10.323L660.997 11.0679L654.204 17.7686L651.83 15.3622L660.901 6.4158L662.818 8.35942L663.262 15.9923L660.886 16.6195L661.756 15.7614C663.348 14.1912 664.904 13.3623 666.424 13.2747C667.945 13.1871 669.259 13.7047 670.366 14.8277C671.085 15.5558 671.569 16.4294 671.819 17.4484C672.057 18.4551 671.976 19.5454 671.576 20.7193C671.176 21.8932 670.359 23.0888 669.125 24.306Z" fill="black"/>
<rect width="70" height="4" transform="translate(573 110.348)" fill="#2F80ED"/>
<g opacity="0.1">
<rect width="70" height="27" transform="translate(573 114.348)" fill="#2F80ED"/>
</g>
<path d="M882.47 91.4624C881.569 92.351 880.559 93.1162 879.439 93.7581C878.307 94.3877 877.213 94.7847 876.158 94.949L875.06 91.5034C875.907 91.3744 876.761 91.0922 877.622 90.6569C878.483 90.2216 879.246 89.6753 879.913 89.018C880.666 88.2755 881.112 87.5432 881.252 86.821C881.391 86.0988 881.206 85.4785 880.694 84.9602C880.208 84.4666 879.633 84.2666 878.97 84.3601C878.308 84.4536 877.551 84.9202 876.699 85.7601L875.33 87.1112L873.376 85.1306L872.95 77.4794L874.343 78.2244L867.549 84.9251L865.176 82.5187L874.246 73.5722L876.163 75.5159L876.607 83.1488L874.231 83.7759L875.101 82.9178C876.693 81.3476 878.249 80.5187 879.77 80.4311C881.29 80.3435 882.604 80.8612 883.712 81.9842C884.43 82.7122 884.914 83.5858 885.164 84.6048C885.403 85.6115 885.322 86.7018 884.921 87.8757C884.521 89.0496 883.704 90.2452 882.47 91.4624ZM891.003 82.6079L879.317 70.7611L881.891 70.7788L878.004 74.613L875.63 72.2066L881.221 66.6927L894.001 79.6501L891.003 82.6079ZM901.383 72.3687L899.466 70.4251L899.808 60.7752C899.85 60.0279 899.824 59.421 899.729 58.9545C899.634 58.4881 899.502 58.1073 899.332 57.8119C899.175 57.5044 898.999 57.252 898.804 57.0545C898.293 56.5362 897.725 56.3178 897.099 56.3993C896.474 56.4563 895.821 56.8195 895.143 57.489C894.6 58.0246 894.197 58.6285 893.935 59.3008C893.686 59.961 893.619 60.6714 893.737 61.4322L890.165 62.1798C889.928 60.9525 890.041 59.6847 890.504 58.3764C890.966 57.0681 891.777 55.8418 892.937 54.6977C893.9 53.7483 894.897 53.081 895.929 52.6959C896.962 52.2862 897.955 52.1705 898.91 52.3486C899.877 52.5146 900.75 52.9925 901.529 53.7823C901.943 54.2019 902.302 54.6762 902.604 55.2053C902.907 55.7099 903.124 56.3488 903.253 57.1219C903.395 57.8827 903.444 58.8452 903.399 60.0093L903.105 68.0049L901.454 67.4787L908.765 60.2668L911.176 62.7102L901.383 72.3687ZM916.834 57.5673C915.933 58.4559 914.923 59.2211 913.803 59.8631C912.671 60.4926 911.577 60.8896 910.522 61.0539L909.424 57.6084C910.271 57.4794 911.125 57.1972 911.986 56.7619C912.847 56.3265 913.61 55.7802 914.277 55.1229C915.03 54.3804 915.476 53.6481 915.616 52.9259C915.755 52.2037 915.57 51.5835 915.058 51.0652C914.572 50.5715 913.997 50.3715 913.334 50.465C912.672 50.5585 911.915 51.0252 911.063 51.8651L909.694 53.2161L907.74 51.2355L907.314 43.5843L908.707 44.3293L901.913 51.03L899.54 48.6236L908.61 39.6772L910.527 41.6208L910.971 49.2537L908.595 49.8809L909.465 49.0227C911.057 47.4526 912.613 46.6237 914.133 46.536C915.654 46.4484 916.968 46.9661 918.076 48.0891C918.794 48.8172 919.278 49.6907 919.528 50.7098C919.767 51.7165 919.686 52.8068 919.285 53.9807C918.885 55.1546 918.068 56.3501 916.834 57.5673ZM929.14 45.4294C928.078 46.4762 926.873 47.1543 925.522 47.4637C924.16 47.7608 922.745 47.6469 921.278 47.122C919.81 46.5972 918.377 45.6252 916.977 44.206C915.577 42.7869 914.625 41.3401 914.12 39.8659C913.616 38.3916 913.527 36.9814 913.855 35.6354C914.171 34.2771 914.86 33.0745 915.921 32.0277C916.994 30.9688 918.206 30.2969 919.557 30.012C920.907 29.7026 922.316 29.8103 923.783 30.3352C925.25 30.86 926.684 31.832 928.083 33.2512C929.483 34.6703 930.435 36.117 930.94 37.5913C931.445 39.0656 931.539 40.4819 931.223 41.8403C930.908 43.1741 930.213 44.3705 929.14 45.4294ZM926.638 42.8935C927.144 42.3944 927.442 41.8204 927.533 41.1714C927.635 40.5103 927.487 39.7677 927.088 38.9438C926.702 38.1076 926.028 37.2021 925.066 36.2272C924.105 35.2524 923.208 34.5659 922.378 34.168C921.559 33.7579 920.819 33.5996 920.156 33.6931C919.506 33.7745 918.928 34.0646 918.422 34.5637C917.929 35.0506 917.63 35.6246 917.528 36.2858C917.438 36.9348 917.586 37.6773 917.972 38.5134C918.371 39.3374 919.051 40.2368 920.013 41.2117C920.974 42.1866 921.864 42.8791 922.683 43.2892C923.514 43.6871 924.254 43.8454 924.904 43.7641C925.567 43.6706 926.145 43.3804 926.638 42.8935ZM938.619 41.2657L935.458 35.6181L937.509 36.8824C936.978 37.4058 936.388 37.6836 935.738 37.7159C935.101 37.7361 934.514 37.4746 933.979 36.9317C933.443 36.3887 933.19 35.7864 933.219 35.1247C933.248 34.463 933.515 33.8827 934.021 33.3836C934.54 32.8724 935.13 32.6191 935.791 32.6236C936.441 32.6158 937.028 32.8772 937.551 33.4079C937.709 33.5683 937.855 33.7409 937.989 33.9257C938.11 34.0981 938.243 34.3319 938.388 34.627C938.534 34.8977 938.697 35.2726 938.877 35.7519L940.451 39.4581L938.619 41.2657ZM945.165 29.6228C944.264 30.5114 943.254 31.2766 942.134 31.9185C941.014 32.536 939.921 32.9329 938.853 33.1094L937.774 29.6456C938.621 29.5166 939.468 29.2405 940.317 28.8173C941.178 28.382 941.941 27.8357 942.608 27.1784C943.361 26.4359 943.807 25.7036 943.947 24.9814C944.086 24.2592 943.895 23.6328 943.371 23.1021C943.043 22.769 942.664 22.558 942.236 22.4692C941.807 22.3805 941.304 22.4874 940.726 22.7898C940.16 23.0801 939.482 23.6147 938.693 24.3937L935.379 27.6619L928.852 19.7114L936.756 11.9153L939.129 14.3216L932.299 21.0589L932.503 18.1554L937.171 23.8133L934.265 23.9772L937.004 21.275C938.288 20.0091 939.494 19.1717 940.625 18.7628C941.756 18.3293 942.798 18.2384 943.752 18.4901C944.707 18.7418 945.561 19.2502 946.316 20.0153C947.07 20.7804 947.579 21.6786 947.842 22.71C948.092 23.729 948.017 24.8378 947.616 26.0362C947.216 27.2101 946.399 28.4056 945.165 29.6228Z" fill="black"/>
<rect width="70" height="4" transform="translate(859.5 105.348)" fill="#2F80ED"/>
<g opacity="0.1">
<rect width="70" height="32" transform="translate(859.5 109.348)" fill="#2F80ED"/>
</g>
<path d="M1168.74 87.6853C1167.84 88.5738 1166.83 89.3391 1165.71 89.981C1164.58 90.6106 1163.49 91.0075 1162.43 91.1719L1161.33 87.7263C1162.18 87.5973 1163.03 87.3151 1163.9 86.8798C1164.76 86.4445 1165.52 85.8982 1166.19 85.2409C1166.94 84.4984 1167.39 83.766 1167.53 83.0438C1167.67 82.3216 1167.48 81.7014 1166.97 81.1831C1166.48 80.6895 1165.91 80.4894 1165.24 80.5829C1164.58 80.6764 1163.82 81.1431 1162.97 81.983L1161.6 83.3341L1159.65 81.3534L1159.22 73.7023L1160.62 74.4472L1153.82 81.148L1151.45 78.7416L1160.52 69.7951L1162.44 71.7387L1162.88 79.3717L1160.51 79.9988L1161.38 79.1407C1162.97 77.5705 1164.52 76.7416 1166.04 76.654C1167.56 76.5664 1168.88 77.0841 1169.99 78.207C1170.7 78.9351 1171.19 79.8087 1171.44 80.8277C1171.68 81.8344 1171.6 82.9247 1171.2 84.0986C1170.8 85.2725 1169.98 86.4681 1168.74 87.6853ZM1179.72 76.8577C1178.82 77.7462 1177.81 78.5115 1176.69 79.1534C1175.57 79.7708 1174.48 80.1678 1173.41 80.3443L1172.33 76.8805C1173.18 76.7514 1174.02 76.4754 1174.87 76.0522C1175.73 75.6169 1176.5 75.0706 1177.16 74.4133C1177.92 73.6708 1178.36 72.9384 1178.5 72.2162C1178.64 71.4941 1178.45 70.8676 1177.93 70.337C1177.6 70.0038 1177.22 69.7928 1176.79 69.7041C1176.36 69.6154 1175.86 69.7222 1175.28 70.0247C1174.72 70.3149 1174.04 70.8496 1173.25 71.6286L1169.94 74.8968L1163.41 66.9463L1171.31 59.1501L1173.69 61.5565L1166.86 68.2937L1167.06 65.3903L1171.73 71.0482L1168.82 71.2121L1171.56 68.5099C1172.84 67.244 1174.05 66.4066 1175.18 65.9976C1176.31 65.5641 1177.35 65.4732 1178.31 65.7249C1179.26 65.9766 1180.12 66.485 1180.87 67.2501C1181.63 68.0152 1182.14 68.9135 1182.4 69.9449C1182.65 70.9639 1182.57 72.0726 1182.17 73.271C1181.77 74.4449 1180.96 75.6405 1179.72 76.8577ZM1182.9 47.2806C1184.1 46.1 1185.37 45.3304 1186.72 44.972C1188.07 44.6135 1189.45 44.6782 1190.86 45.1658C1192.25 45.6412 1193.64 46.5823 1195.03 47.9891C1196.5 49.4823 1197.47 51.0271 1197.92 52.6236C1198.39 54.208 1198.4 55.7585 1197.95 57.2752C1197.49 58.792 1196.61 60.1955 1195.31 61.4857C1194.63 62.1552 1193.9 62.7262 1193.12 63.1989C1192.35 63.6716 1191.59 63.9851 1190.84 64.1392L1189.78 60.841C1190.38 60.7348 1190.93 60.5303 1191.44 60.2273C1191.93 59.912 1192.4 59.5353 1192.84 59.0971C1193.95 58.0016 1194.5 56.7919 1194.48 55.4681C1194.48 54.1321 1193.82 52.7977 1192.51 51.4649C1192.29 51.2428 1192.04 51.0021 1191.76 50.7427C1191.48 50.4834 1191.18 50.2424 1190.86 50.0196L1192.44 49.9937C1192.71 50.6819 1192.81 51.3812 1192.76 52.0917C1192.69 52.7899 1192.49 53.4749 1192.16 54.1468C1191.81 54.8062 1191.32 55.4464 1190.69 56.0671C1189.86 56.8827 1188.95 57.4586 1187.94 57.7948C1186.95 58.1189 1185.95 58.1795 1184.94 57.9765C1183.95 57.7613 1183.05 57.2465 1182.25 56.432C1181.37 55.5435 1180.84 54.5654 1180.63 53.4976C1180.45 52.4178 1180.55 51.3399 1180.95 50.264C1181.35 49.1637 1182 48.1692 1182.9 47.2806ZM1185.3 49.3378C1184.86 49.7639 1184.57 50.2153 1184.4 50.6922C1184.23 51.1568 1184.2 51.6284 1184.3 52.1072C1184.4 52.5736 1184.64 53.0043 1185.03 53.3991C1185.61 53.9915 1186.28 54.2718 1187.03 54.2402C1187.78 54.1841 1188.48 53.8273 1189.15 53.1701C1189.58 52.744 1189.88 52.2865 1190.06 51.7974C1190.23 51.2838 1190.27 50.7877 1190.16 50.3089C1190.05 49.8302 1189.82 49.4057 1189.45 49.0355C1189.09 48.6653 1188.67 48.4295 1188.21 48.3283C1187.74 48.2025 1187.26 48.2237 1186.77 48.392C1186.27 48.5478 1185.78 48.8631 1185.3 49.3378ZM1194.69 35.6554C1195.88 34.4747 1197.16 33.7052 1198.51 33.3467C1199.86 32.9883 1201.24 33.0529 1202.64 33.5406C1204.04 34.0159 1205.43 34.957 1206.82 36.3638C1208.29 37.857 1209.25 39.4019 1209.71 40.9984C1210.18 42.5827 1210.18 44.1333 1209.73 45.65C1209.28 47.1667 1208.4 48.5702 1207.09 49.8605C1206.41 50.5299 1205.69 51.101 1204.91 51.5737C1204.14 52.0464 1203.37 52.3598 1202.62 52.514L1201.56 49.2158C1202.16 49.1096 1202.72 48.905 1203.22 48.6021C1203.71 48.2868 1204.18 47.91 1204.63 47.4718C1205.74 46.3763 1206.28 45.1667 1206.27 43.8428C1206.27 42.5068 1205.61 41.1724 1204.29 39.8397C1204.07 39.6175 1203.82 39.3768 1203.54 39.1175C1203.26 38.8582 1202.97 38.6171 1202.65 38.3943L1204.23 38.3684C1204.49 39.0566 1204.6 39.756 1204.55 40.4665C1204.48 41.1647 1204.28 41.8497 1203.94 42.5215C1203.6 43.181 1203.11 43.8211 1202.48 44.4419C1201.65 45.2574 1200.73 45.8333 1199.73 46.1696C1198.73 46.4937 1197.73 46.5542 1196.73 46.3512C1195.74 46.1361 1194.84 45.6212 1194.04 44.8068C1193.16 43.9183 1192.62 42.9401 1192.42 41.8724C1192.23 40.7925 1192.34 39.7146 1192.74 38.6388C1193.14 37.5384 1193.79 36.544 1194.69 35.6554ZM1197.08 37.7126C1196.65 38.1386 1196.35 38.5901 1196.19 39.067C1196.02 39.5315 1195.98 40.0032 1196.09 40.4819C1196.18 40.9484 1196.43 41.379 1196.82 41.7739C1197.4 42.3662 1198.07 42.6466 1198.81 42.615C1199.56 42.5588 1200.27 42.2021 1200.93 41.5448C1201.37 41.1188 1201.67 40.6612 1201.85 40.1722C1202.02 39.6586 1202.05 39.1624 1201.95 38.6837C1201.84 38.2049 1201.6 37.7804 1201.24 37.4102C1200.87 37.04 1200.46 36.8043 1199.99 36.703C1199.53 36.5773 1199.05 36.5985 1198.56 36.7667C1198.06 36.9226 1197.56 37.2379 1197.08 37.7126ZM1206.47 24.0302C1207.67 22.8495 1208.94 22.0799 1210.3 21.7215C1211.65 21.3631 1213.02 21.4277 1214.43 21.9154C1215.82 22.3907 1217.22 23.3318 1218.6 24.7386C1220.08 26.2318 1221.04 27.7766 1221.49 29.3731C1221.96 30.9575 1221.97 32.508 1221.52 34.0248C1221.07 35.5415 1220.19 36.945 1218.88 38.2352C1218.2 38.9047 1217.47 39.4758 1216.7 39.9484C1215.92 40.4211 1215.16 40.7346 1214.41 40.8888L1213.35 37.5905C1213.95 37.4843 1214.5 37.2798 1215.01 36.9768C1215.5 36.6615 1215.97 36.2848 1216.41 35.8466C1217.52 34.7511 1218.07 33.5414 1218.06 32.2176C1218.05 30.8816 1217.39 29.5472 1216.08 28.2144C1215.86 27.9923 1215.61 27.7516 1215.33 27.4923C1215.05 27.2329 1214.75 26.9919 1214.43 26.7691L1216.02 26.7432C1216.28 27.4314 1216.39 28.1307 1216.33 28.8413C1216.27 29.5395 1216.07 30.2245 1215.73 30.8963C1215.38 31.5558 1214.89 32.1959 1214.26 32.8167C1213.44 33.6322 1212.52 34.2081 1211.51 34.5443C1210.52 34.8684 1209.52 34.929 1208.51 34.726C1207.52 34.5108 1206.63 33.996 1205.82 33.1815C1204.95 32.293 1204.41 31.3149 1204.21 30.2472C1204.02 29.1673 1204.12 28.0894 1204.52 27.0135C1204.92 25.9132 1205.57 24.9187 1206.47 24.0302ZM1208.87 26.0874C1208.44 26.5134 1208.14 26.9648 1207.98 27.4417C1207.8 27.9063 1207.77 28.378 1207.87 28.8567C1207.97 29.3231 1208.21 29.7538 1208.6 30.1487C1209.19 30.741 1209.85 31.0214 1210.6 30.9897C1211.35 30.9336 1212.05 30.5769 1212.72 29.9196C1213.15 29.4936 1213.46 29.036 1213.63 28.5469C1213.81 28.0334 1213.84 27.5372 1213.73 27.0584C1213.63 26.5797 1213.39 26.1552 1213.03 25.785C1212.66 25.4148 1212.24 25.179 1211.78 25.0778C1211.31 24.952 1210.84 24.9733 1210.35 25.1415C1209.84 25.2974 1209.35 25.6127 1208.87 26.0874ZM1229.39 33.0489L1226.23 27.4013L1228.28 28.6656C1227.75 29.189 1227.16 29.4668 1226.51 29.4991C1225.88 29.5192 1225.29 29.2578 1224.75 28.7148C1224.22 28.1719 1223.96 27.5695 1223.99 26.9079C1224.02 26.2462 1224.29 25.6658 1224.8 25.1668C1225.31 24.6556 1225.9 24.4022 1226.57 24.4068C1227.22 24.399 1227.8 24.6604 1228.33 25.191C1228.48 25.3515 1228.63 25.5241 1228.76 25.7088C1228.89 25.8813 1229.02 26.1151 1229.16 26.4102C1229.31 26.6809 1229.47 27.0558 1229.65 27.5351L1231.23 31.2413L1229.39 33.0489ZM1233.03 23.8427L1221.34 11.9959L1223.91 12.0136L1220.03 15.8478L1217.65 13.4414L1223.24 7.92746L1236.02 20.8849L1233.03 23.8427Z" fill="black"/>
<rect width="70" height="4" transform="translate(1146 101.348)" fill="#2F80ED"/>
<g opacity="0.1">
<rect width="70" height="36" transform="translate(1146 105.348)" fill="#2F80ED"/>
</g>
</svg>
