<svg width="1219" height="22" viewBox="0 0 1219 22" fill="none" xmlns="http://www.w3.org/2000/svg">
<path d="M3.2002 12.517H4.25293C4.59017 12.517 4.86816 12.46 5.08691 12.3461C5.30566 12.2276 5.46745 12.0635 5.57227 11.8539C5.68164 11.6397 5.73633 11.3913 5.73633 11.1088C5.73633 10.8536 5.6862 10.628 5.58594 10.432C5.49023 10.2315 5.34212 10.0765 5.1416 9.96716C4.94108 9.85323 4.68815 9.79626 4.38281 9.79626C4.14128 9.79626 3.91797 9.84412 3.71289 9.93982C3.50781 10.0355 3.34375 10.17 3.2207 10.3431C3.09766 10.5163 3.03613 10.726 3.03613 10.972H1.06055C1.06055 10.4252 1.20638 9.94893 1.49805 9.54333C1.79427 9.13774 2.19076 8.821 2.6875 8.59314C3.18424 8.36528 3.73112 8.25134 4.32812 8.25134C5.0026 8.25134 5.59277 8.36072 6.09863 8.57947C6.60449 8.79366 6.9987 9.11039 7.28125 9.52966C7.5638 9.94893 7.70508 10.4685 7.70508 11.0883C7.70508 11.4027 7.63216 11.708 7.48633 12.0043C7.34049 12.2959 7.13086 12.5603 6.85742 12.7972C6.58854 13.0297 6.26042 13.2165 5.87305 13.3578C5.48568 13.4945 5.05046 13.5629 4.56738 13.5629H3.2002V12.517ZM3.2002 14.014V12.9955H4.56738C5.1097 12.9955 5.58594 13.057 5.99609 13.1801C6.40625 13.3031 6.75033 13.4808 7.02832 13.7133C7.30632 13.9411 7.51595 14.2123 7.65723 14.5267C7.7985 14.8366 7.86914 15.1807 7.86914 15.559C7.86914 16.0238 7.78027 16.4385 7.60254 16.8031C7.4248 17.1631 7.17415 17.4685 6.85059 17.7191C6.53158 17.9698 6.15788 18.1612 5.72949 18.2933C5.30111 18.4209 4.83398 18.4847 4.32812 18.4847C3.90885 18.4847 3.49642 18.4278 3.09082 18.3138C2.68978 18.1954 2.3252 18.0199 1.99707 17.7875C1.6735 17.5505 1.41374 17.2543 1.21777 16.8988C1.02637 16.5388 0.930664 16.1127 0.930664 15.6205H2.90625C2.90625 15.8757 2.97005 16.1036 3.09766 16.3041C3.22526 16.5046 3.40072 16.6618 3.62402 16.7758C3.85189 16.8897 4.10482 16.9467 4.38281 16.9467C4.69727 16.9467 4.96615 16.8897 5.18945 16.7758C5.41732 16.6573 5.59049 16.4932 5.70898 16.2836C5.83203 16.0694 5.89355 15.821 5.89355 15.5385C5.89355 15.1739 5.82747 14.8822 5.69531 14.6635C5.56315 14.4401 5.37402 14.2761 5.12793 14.1713C4.88184 14.0664 4.59017 14.014 4.25293 14.014H3.2002ZM14.0215 8.37439V18.348H12.0527V10.6439L9.6875 11.3959V9.84412L13.8096 8.37439H14.0215ZM17.4395 17.3978C17.4395 17.1062 17.5397 16.8623 17.7402 16.6664C17.9453 16.4704 18.2165 16.3724 18.5537 16.3724C18.891 16.3724 19.1598 16.4704 19.3604 16.6664C19.5654 16.8623 19.668 17.1062 19.668 17.3978C19.668 17.6895 19.5654 17.9333 19.3604 18.1293C19.1598 18.3252 18.891 18.4232 18.5537 18.4232C18.2165 18.4232 17.9453 18.3252 17.7402 18.1293C17.5397 17.9333 17.4395 17.6895 17.4395 17.3978ZM28.0215 12.4965V14.2191C28.0215 14.9665 27.9417 15.6114 27.7822 16.1537C27.6227 16.6914 27.3926 17.1335 27.0918 17.4799C26.7956 17.8217 26.4424 18.0746 26.0322 18.2386C25.6221 18.4027 25.1663 18.4847 24.665 18.4847C24.264 18.4847 23.8903 18.4346 23.5439 18.3344C23.1976 18.2295 22.8854 18.0677 22.6074 17.849C22.334 17.6302 22.097 17.3545 21.8965 17.0219C21.7005 16.6846 21.5501 16.2836 21.4453 15.8187C21.3405 15.3539 21.2881 14.8207 21.2881 14.2191V12.4965C21.2881 11.7491 21.3678 11.1088 21.5273 10.5756C21.6914 10.0378 21.9215 9.59802 22.2178 9.25623C22.5186 8.91443 22.874 8.66378 23.2842 8.50427C23.6943 8.34021 24.1501 8.25818 24.6514 8.25818C25.0524 8.25818 25.4238 8.31059 25.7656 8.41541C26.112 8.51567 26.4242 8.67289 26.7021 8.88708C26.9801 9.10128 27.2171 9.37699 27.4131 9.71423C27.609 10.0469 27.7594 10.4457 27.8643 10.9105C27.9691 11.3708 28.0215 11.8995 28.0215 12.4965ZM26.0459 14.4789V12.2299C26.0459 11.8698 26.0254 11.5554 25.9844 11.2865C25.9479 11.0176 25.891 10.7898 25.8135 10.6029C25.736 10.4115 25.6403 10.2566 25.5264 10.1381C25.4124 10.0196 25.2826 9.93298 25.1367 9.8783C24.9909 9.82361 24.8291 9.79626 24.6514 9.79626C24.4281 9.79626 24.2298 9.83956 24.0566 9.92615C23.888 10.0127 23.7445 10.1517 23.626 10.3431C23.5075 10.53 23.4163 10.7806 23.3525 11.0951C23.2933 11.405 23.2637 11.7832 23.2637 12.2299V14.4789C23.2637 14.8389 23.2819 15.1556 23.3184 15.4291C23.3594 15.7025 23.4186 15.9372 23.4961 16.1332C23.5781 16.3246 23.6738 16.4818 23.7832 16.6049C23.8971 16.7233 24.027 16.8099 24.1729 16.8646C24.3232 16.9193 24.4873 16.9467 24.665 16.9467C24.8838 16.9467 25.0775 16.9034 25.2461 16.8168C25.4193 16.7256 25.5651 16.5844 25.6836 16.3929C25.8066 16.197 25.8978 15.9418 25.957 15.6273C26.0163 15.3129 26.0459 14.9301 26.0459 14.4789ZM31.3779 12.517H32.4307C32.7679 12.517 33.0459 12.46 33.2646 12.3461C33.4834 12.2276 33.6452 12.0635 33.75 11.8539C33.8594 11.6397 33.9141 11.3913 33.9141 11.1088C33.9141 10.8536 33.8639 10.628 33.7637 10.432C33.668 10.2315 33.5199 10.0765 33.3193 9.96716C33.1188 9.85323 32.8659 9.79626 32.5605 9.79626C32.319 9.79626 32.0957 9.84412 31.8906 9.93982C31.6855 10.0355 31.5215 10.17 31.3984 10.3431C31.2754 10.5163 31.2139 10.726 31.2139 10.972H29.2383C29.2383 10.4252 29.3841 9.94893 29.6758 9.54333C29.972 9.13774 30.3685 8.821 30.8652 8.59314C31.362 8.36528 31.9089 8.25134 32.5059 8.25134C33.1803 8.25134 33.7705 8.36072 34.2764 8.57947C34.7822 8.79366 35.1764 9.11039 35.459 9.52966C35.7415 9.94893 35.8828 10.4685 35.8828 11.0883C35.8828 11.4027 35.8099 11.708 35.6641 12.0043C35.5182 12.2959 35.3086 12.5603 35.0352 12.7972C34.7663 13.0297 34.4382 13.2165 34.0508 13.3578C33.6634 13.4945 33.2282 13.5629 32.7451 13.5629H31.3779V12.517ZM31.3779 14.014V12.9955H32.7451C33.2874 12.9955 33.7637 13.057 34.1738 13.1801C34.584 13.3031 34.9281 13.4808 35.2061 13.7133C35.484 13.9411 35.6937 14.2123 35.835 14.5267C35.9762 14.8366 36.0469 15.1807 36.0469 15.559C36.0469 16.0238 35.958 16.4385 35.7803 16.8031C35.6025 17.1631 35.3519 17.4685 35.0283 17.7191C34.7093 17.9698 34.3356 18.1612 33.9072 18.2933C33.4788 18.4209 33.0117 18.4847 32.5059 18.4847C32.0866 18.4847 31.6742 18.4278 31.2686 18.3138C30.8675 18.1954 30.5029 18.0199 30.1748 17.7875C29.8512 17.5505 29.5915 17.2543 29.3955 16.8988C29.2041 16.5388 29.1084 16.1127 29.1084 15.6205H31.084C31.084 15.8757 31.1478 16.1036 31.2754 16.3041C31.403 16.5046 31.5785 16.6618 31.8018 16.7758C32.0296 16.8897 32.2826 16.9467 32.5605 16.9467C32.875 16.9467 33.1439 16.8897 33.3672 16.7758C33.5951 16.6573 33.7682 16.4932 33.8867 16.2836C34.0098 16.0694 34.0713 15.821 34.0713 15.5385C34.0713 15.1739 34.0052 14.8822 33.873 14.6635C33.7409 14.4401 33.5518 14.2761 33.3057 14.1713C33.0596 14.0664 32.7679 14.014 32.4307 14.014H31.3779ZM37.5781 17.3978C37.5781 17.1062 37.6784 16.8623 37.8789 16.6664C38.084 16.4704 38.3551 16.3724 38.6924 16.3724C39.0296 16.3724 39.2985 16.4704 39.499 16.6664C39.7041 16.8623 39.8066 17.1062 39.8066 17.3978C39.8066 17.6895 39.7041 17.9333 39.499 18.1293C39.2985 18.3252 39.0296 18.4232 38.6924 18.4232C38.3551 18.4232 38.084 18.3252 37.8789 18.1293C37.6784 17.9333 37.5781 17.6895 37.5781 17.3978ZM48.2695 16.8099V18.348H41.4609V17.0355L44.6807 13.5834C45.0042 13.2233 45.2594 12.9066 45.4463 12.6332C45.6331 12.3552 45.7676 12.1068 45.8496 11.8881C45.9362 11.6648 45.9795 11.4528 45.9795 11.2523C45.9795 10.9515 45.9294 10.6941 45.8291 10.4799C45.7288 10.2611 45.5807 10.0925 45.3848 9.974C45.1934 9.85551 44.9564 9.79626 44.6738 9.79626C44.373 9.79626 44.1133 9.86918 43.8945 10.015C43.6803 10.1608 43.5163 10.3636 43.4023 10.6234C43.293 10.8832 43.2383 11.1771 43.2383 11.5052H41.2627C41.2627 10.9128 41.404 10.3705 41.6865 9.8783C41.9691 9.38155 42.3678 8.98735 42.8828 8.69568C43.3978 8.39945 44.0085 8.25134 44.7148 8.25134C45.4121 8.25134 46 8.36528 46.4785 8.59314C46.9616 8.81645 47.3262 9.14001 47.5723 9.56384C47.8229 9.98311 47.9482 10.4844 47.9482 11.0677C47.9482 11.3959 47.8958 11.7172 47.791 12.0316C47.6862 12.3415 47.5358 12.6514 47.3398 12.9613C47.1484 13.2666 46.916 13.5765 46.6426 13.891C46.3691 14.2054 46.0661 14.5313 45.7334 14.8685L44.0039 16.8099H48.2695ZM56.1992 12.4965V14.2191C56.1992 14.9665 56.1195 15.6114 55.96 16.1537C55.8005 16.6914 55.5703 17.1335 55.2695 17.4799C54.9733 17.8217 54.6201 18.0746 54.21 18.2386C53.7998 18.4027 53.3441 18.4847 52.8428 18.4847C52.4417 18.4847 52.068 18.4346 51.7217 18.3344C51.3753 18.2295 51.0632 18.0677 50.7852 17.849C50.5117 17.6302 50.2747 17.3545 50.0742 17.0219C49.8783 16.6846 49.7279 16.2836 49.623 15.8187C49.5182 15.3539 49.4658 14.8207 49.4658 14.2191V12.4965C49.4658 11.7491 49.5456 11.1088 49.7051 10.5756C49.8691 10.0378 50.0993 9.59802 50.3955 9.25623C50.6963 8.91443 51.0518 8.66378 51.4619 8.50427C51.8721 8.34021 52.3278 8.25818 52.8291 8.25818C53.2301 8.25818 53.6016 8.31059 53.9434 8.41541C54.2897 8.51567 54.6019 8.67289 54.8799 8.88708C55.1579 9.10128 55.3949 9.37699 55.5908 9.71423C55.7868 10.0469 55.9372 10.4457 56.042 10.9105C56.1468 11.3708 56.1992 11.8995 56.1992 12.4965ZM54.2236 14.4789V12.2299C54.2236 11.8698 54.2031 11.5554 54.1621 11.2865C54.1257 11.0176 54.0687 10.7898 53.9912 10.6029C53.9137 10.4115 53.818 10.2566 53.7041 10.1381C53.5902 10.0196 53.4603 9.93298 53.3145 9.8783C53.1686 9.82361 53.0068 9.79626 52.8291 9.79626C52.6058 9.79626 52.4076 9.83956 52.2344 9.92615C52.0658 10.0127 51.9222 10.1517 51.8037 10.3431C51.6852 10.53 51.5941 10.7806 51.5303 11.0951C51.471 11.405 51.4414 11.7832 51.4414 12.2299V14.4789C51.4414 14.8389 51.4596 15.1556 51.4961 15.4291C51.5371 15.7025 51.5964 15.9372 51.6738 16.1332C51.7559 16.3246 51.8516 16.4818 51.9609 16.6049C52.0749 16.7233 52.2048 16.8099 52.3506 16.8646C52.501 16.9193 52.665 16.9467 52.8428 16.9467C53.0615 16.9467 53.2552 16.9034 53.4238 16.8168C53.597 16.7256 53.7428 16.5844 53.8613 16.3929C53.9844 16.197 54.0755 15.9418 54.1348 15.6273C54.194 15.3129 54.2236 14.9301 54.2236 14.4789ZM64.3477 16.8099V18.348H57.5391V17.0355L60.7588 13.5834C61.0824 13.2233 61.3376 12.9066 61.5244 12.6332C61.7113 12.3552 61.8457 12.1068 61.9277 11.8881C62.0143 11.6648 62.0576 11.4528 62.0576 11.2523C62.0576 10.9515 62.0075 10.6941 61.9072 10.4799C61.807 10.2611 61.6589 10.0925 61.4629 9.974C61.2715 9.85551 61.0345 9.79626 60.752 9.79626C60.4512 9.79626 60.1914 9.86918 59.9727 10.015C59.7585 10.1608 59.5944 10.3636 59.4805 10.6234C59.3711 10.8832 59.3164 11.1771 59.3164 11.5052H57.3408C57.3408 10.9128 57.4821 10.3705 57.7646 9.8783C58.0472 9.38155 58.446 8.98735 58.9609 8.69568C59.4759 8.39945 60.0866 8.25134 60.793 8.25134C61.4902 8.25134 62.0781 8.36528 62.5566 8.59314C63.0397 8.81645 63.4043 9.14001 63.6504 9.56384C63.901 9.98311 64.0264 10.4844 64.0264 11.0677C64.0264 11.3959 63.974 11.7172 63.8691 12.0316C63.7643 12.3415 63.6139 12.6514 63.418 12.9613C63.2266 13.2666 62.9941 13.5765 62.7207 13.891C62.4473 14.2054 62.1442 14.5313 61.8115 14.8685L60.082 16.8099H64.3477ZM72.2773 12.4965V14.2191C72.2773 14.9665 72.1976 15.6114 72.0381 16.1537C71.8786 16.6914 71.6484 17.1335 71.3477 17.4799C71.0514 17.8217 70.6982 18.0746 70.2881 18.2386C69.8779 18.4027 69.4222 18.4847 68.9209 18.4847C68.5199 18.4847 68.1462 18.4346 67.7998 18.3344C67.4535 18.2295 67.1413 18.0677 66.8633 17.849C66.5898 17.6302 66.3529 17.3545 66.1523 17.0219C65.9564 16.6846 65.806 16.2836 65.7012 15.8187C65.5964 15.3539 65.5439 14.8207 65.5439 14.2191V12.4965C65.5439 11.7491 65.6237 11.1088 65.7832 10.5756C65.9473 10.0378 66.1774 9.59802 66.4736 9.25623C66.7744 8.91443 67.1299 8.66378 67.54 8.50427C67.9502 8.34021 68.4059 8.25818 68.9072 8.25818C69.3083 8.25818 69.6797 8.31059 70.0215 8.41541C70.3678 8.51567 70.68 8.67289 70.958 8.88708C71.236 9.10128 71.473 9.37699 71.6689 9.71423C71.8649 10.0469 72.0153 10.4457 72.1201 10.9105C72.2249 11.3708 72.2773 11.8995 72.2773 12.4965ZM70.3018 14.4789V12.2299C70.3018 11.8698 70.2812 11.5554 70.2402 11.2865C70.2038 11.0176 70.1468 10.7898 70.0693 10.6029C69.9919 10.4115 69.8962 10.2566 69.7822 10.1381C69.6683 10.0196 69.5384 9.93298 69.3926 9.8783C69.2467 9.82361 69.085 9.79626 68.9072 9.79626C68.6839 9.79626 68.4857 9.83956 68.3125 9.92615C68.1439 10.0127 68.0003 10.1517 67.8818 10.3431C67.7633 10.53 67.6722 10.7806 67.6084 11.0951C67.5492 11.405 67.5195 11.7832 67.5195 12.2299V14.4789C67.5195 14.8389 67.5378 15.1556 67.5742 15.4291C67.6152 15.7025 67.6745 15.9372 67.752 16.1332C67.834 16.3246 67.9297 16.4818 68.0391 16.6049C68.153 16.7233 68.2829 16.8099 68.4287 16.8646C68.5791 16.9193 68.7432 16.9467 68.9209 16.9467C69.1396 16.9467 69.3333 16.9034 69.502 16.8168C69.6751 16.7256 69.821 16.5844 69.9395 16.3929C70.0625 16.197 70.1536 15.9418 70.2129 15.6273C70.2721 15.3129 70.3018 14.9301 70.3018 14.4789Z" fill="black"/>
<path d="M289.7 12.517H290.753C291.09 12.517 291.368 12.46 291.587 12.3461C291.806 12.2276 291.967 12.0635 292.072 11.8539C292.182 11.6397 292.236 11.3913 292.236 11.1088C292.236 10.8536 292.186 10.628 292.086 10.432C291.99 10.2315 291.842 10.0765 291.642 9.96716C291.441 9.85323 291.188 9.79626 290.883 9.79626C290.641 9.79626 290.418 9.84412 290.213 9.93982C290.008 10.0355 289.844 10.17 289.721 10.3431C289.598 10.5163 289.536 10.726 289.536 10.972H287.561C287.561 10.4252 287.706 9.94893 287.998 9.54333C288.294 9.13774 288.691 8.821 289.188 8.59314C289.684 8.36528 290.231 8.25134 290.828 8.25134C291.503 8.25134 292.093 8.36072 292.599 8.57947C293.104 8.79366 293.499 9.11039 293.781 9.52966C294.064 9.94893 294.205 10.4685 294.205 11.0883C294.205 11.4027 294.132 11.708 293.986 12.0043C293.84 12.2959 293.631 12.5603 293.357 12.7972C293.089 13.0297 292.76 13.2165 292.373 13.3578C291.986 13.4945 291.55 13.5629 291.067 13.5629H289.7V12.517ZM289.7 14.014V12.9955H291.067C291.61 12.9955 292.086 13.057 292.496 13.1801C292.906 13.3031 293.25 13.4808 293.528 13.7133C293.806 13.9411 294.016 14.2123 294.157 14.5267C294.299 14.8366 294.369 15.1807 294.369 15.559C294.369 16.0238 294.28 16.4385 294.103 16.8031C293.925 17.1631 293.674 17.4685 293.351 17.7191C293.032 17.9698 292.658 18.1612 292.229 18.2933C291.801 18.4209 291.334 18.4847 290.828 18.4847C290.409 18.4847 289.996 18.4278 289.591 18.3138C289.19 18.1954 288.825 18.0199 288.497 17.7875C288.174 17.5505 287.914 17.2543 287.718 16.8988C287.526 16.5388 287.431 16.1127 287.431 15.6205H289.406C289.406 15.8757 289.47 16.1036 289.598 16.3041C289.725 16.5046 289.901 16.6618 290.124 16.7758C290.352 16.8897 290.605 16.9467 290.883 16.9467C291.197 16.9467 291.466 16.8897 291.689 16.7758C291.917 16.6573 292.09 16.4932 292.209 16.2836C292.332 16.0694 292.394 15.821 292.394 15.5385C292.394 15.1739 292.327 14.8822 292.195 14.6635C292.063 14.4401 291.874 14.2761 291.628 14.1713C291.382 14.0664 291.09 14.014 290.753 14.014H289.7ZM300.521 8.37439V18.348H298.553V10.6439L296.188 11.3959V9.84412L300.31 8.37439H300.521ZM303.939 17.3978C303.939 17.1062 304.04 16.8623 304.24 16.6664C304.445 16.4704 304.716 16.3724 305.054 16.3724C305.391 16.3724 305.66 16.4704 305.86 16.6664C306.065 16.8623 306.168 17.1062 306.168 17.3978C306.168 17.6895 306.065 17.9333 305.86 18.1293C305.66 18.3252 305.391 18.4232 305.054 18.4232C304.716 18.4232 304.445 18.3252 304.24 18.1293C304.04 17.9333 303.939 17.6895 303.939 17.3978ZM314.521 12.4965V14.2191C314.521 14.9665 314.442 15.6114 314.282 16.1537C314.123 16.6914 313.893 17.1335 313.592 17.4799C313.296 17.8217 312.942 18.0746 312.532 18.2386C312.122 18.4027 311.666 18.4847 311.165 18.4847C310.764 18.4847 310.39 18.4346 310.044 18.3344C309.698 18.2295 309.385 18.0677 309.107 17.849C308.834 17.6302 308.597 17.3545 308.396 17.0219C308.201 16.6846 308.05 16.2836 307.945 15.8187C307.84 15.3539 307.788 14.8207 307.788 14.2191V12.4965C307.788 11.7491 307.868 11.1088 308.027 10.5756C308.191 10.0378 308.422 9.59802 308.718 9.25623C309.019 8.91443 309.374 8.66378 309.784 8.50427C310.194 8.34021 310.65 8.25818 311.151 8.25818C311.552 8.25818 311.924 8.31059 312.266 8.41541C312.612 8.51567 312.924 8.67289 313.202 8.88708C313.48 9.10128 313.717 9.37699 313.913 9.71423C314.109 10.0469 314.259 10.4457 314.364 10.9105C314.469 11.3708 314.521 11.8995 314.521 12.4965ZM312.546 14.4789V12.2299C312.546 11.8698 312.525 11.5554 312.484 11.2865C312.448 11.0176 312.391 10.7898 312.313 10.6029C312.236 10.4115 312.14 10.2566 312.026 10.1381C311.912 10.0196 311.783 9.93298 311.637 9.8783C311.491 9.82361 311.329 9.79626 311.151 9.79626C310.928 9.79626 310.73 9.83956 310.557 9.92615C310.388 10.0127 310.244 10.1517 310.126 10.3431C310.007 10.53 309.916 10.7806 309.853 11.0951C309.793 11.405 309.764 11.7832 309.764 12.2299V14.4789C309.764 14.8389 309.782 15.1556 309.818 15.4291C309.859 15.7025 309.919 15.9372 309.996 16.1332C310.078 16.3246 310.174 16.4818 310.283 16.6049C310.397 16.7233 310.527 16.8099 310.673 16.8646C310.823 16.9193 310.987 16.9467 311.165 16.9467C311.384 16.9467 311.577 16.9034 311.746 16.8168C311.919 16.7256 312.065 16.5844 312.184 16.3929C312.307 16.197 312.398 15.9418 312.457 15.6273C312.516 15.3129 312.546 14.9301 312.546 14.4789ZM317.878 12.517H318.931C319.268 12.517 319.546 12.46 319.765 12.3461C319.983 12.2276 320.145 12.0635 320.25 11.8539C320.359 11.6397 320.414 11.3913 320.414 11.1088C320.414 10.8536 320.364 10.628 320.264 10.432C320.168 10.2315 320.02 10.0765 319.819 9.96716C319.619 9.85323 319.366 9.79626 319.061 9.79626C318.819 9.79626 318.596 9.84412 318.391 9.93982C318.186 10.0355 318.021 10.17 317.898 10.3431C317.775 10.5163 317.714 10.726 317.714 10.972H315.738C315.738 10.4252 315.884 9.94893 316.176 9.54333C316.472 9.13774 316.868 8.821 317.365 8.59314C317.862 8.36528 318.409 8.25134 319.006 8.25134C319.68 8.25134 320.271 8.36072 320.776 8.57947C321.282 8.79366 321.676 9.11039 321.959 9.52966C322.242 9.94893 322.383 10.4685 322.383 11.0883C322.383 11.4027 322.31 11.708 322.164 12.0043C322.018 12.2959 321.809 12.5603 321.535 12.7972C321.266 13.0297 320.938 13.2165 320.551 13.3578C320.163 13.4945 319.728 13.5629 319.245 13.5629H317.878V12.517ZM317.878 14.014V12.9955H319.245C319.787 12.9955 320.264 13.057 320.674 13.1801C321.084 13.3031 321.428 13.4808 321.706 13.7133C321.984 13.9411 322.194 14.2123 322.335 14.5267C322.476 14.8366 322.547 15.1807 322.547 15.559C322.547 16.0238 322.458 16.4385 322.28 16.8031C322.103 17.1631 321.852 17.4685 321.528 17.7191C321.209 17.9698 320.836 18.1612 320.407 18.2933C319.979 18.4209 319.512 18.4847 319.006 18.4847C318.587 18.4847 318.174 18.4278 317.769 18.3138C317.368 18.1954 317.003 18.0199 316.675 17.7875C316.351 17.5505 316.091 17.2543 315.896 16.8988C315.704 16.5388 315.608 16.1127 315.608 15.6205H317.584C317.584 15.8757 317.648 16.1036 317.775 16.3041C317.903 16.5046 318.078 16.6618 318.302 16.7758C318.53 16.8897 318.783 16.9467 319.061 16.9467C319.375 16.9467 319.644 16.8897 319.867 16.7758C320.095 16.6573 320.268 16.4932 320.387 16.2836C320.51 16.0694 320.571 15.821 320.571 15.5385C320.571 15.1739 320.505 14.8822 320.373 14.6635C320.241 14.4401 320.052 14.2761 319.806 14.1713C319.56 14.0664 319.268 14.014 318.931 14.014H317.878ZM324.078 17.3978C324.078 17.1062 324.178 16.8623 324.379 16.6664C324.584 16.4704 324.855 16.3724 325.192 16.3724C325.53 16.3724 325.799 16.4704 325.999 16.6664C326.204 16.8623 326.307 17.1062 326.307 17.3978C326.307 17.6895 326.204 17.9333 325.999 18.1293C325.799 18.3252 325.53 18.4232 325.192 18.4232C324.855 18.4232 324.584 18.3252 324.379 18.1293C324.178 17.9333 324.078 17.6895 324.078 17.3978ZM334.77 16.8099V18.348H327.961V17.0355L331.181 13.5834C331.504 13.2233 331.759 12.9066 331.946 12.6332C332.133 12.3552 332.268 12.1068 332.35 11.8881C332.436 11.6648 332.479 11.4528 332.479 11.2523C332.479 10.9515 332.429 10.6941 332.329 10.4799C332.229 10.2611 332.081 10.0925 331.885 9.974C331.693 9.85551 331.456 9.79626 331.174 9.79626C330.873 9.79626 330.613 9.86918 330.395 10.015C330.18 10.1608 330.016 10.3636 329.902 10.6234C329.793 10.8832 329.738 11.1771 329.738 11.5052H327.763C327.763 10.9128 327.904 10.3705 328.187 9.8783C328.469 9.38155 328.868 8.98735 329.383 8.69568C329.898 8.39945 330.508 8.25134 331.215 8.25134C331.912 8.25134 332.5 8.36528 332.979 8.59314C333.462 8.81645 333.826 9.14001 334.072 9.56384C334.323 9.98311 334.448 10.4844 334.448 11.0677C334.448 11.3959 334.396 11.7172 334.291 12.0316C334.186 12.3415 334.036 12.6514 333.84 12.9613C333.648 13.2666 333.416 13.5765 333.143 13.891C332.869 14.2054 332.566 14.5313 332.233 14.8685L330.504 16.8099H334.77ZM342.699 12.4965V14.2191C342.699 14.9665 342.619 15.6114 342.46 16.1537C342.3 16.6914 342.07 17.1335 341.77 17.4799C341.473 17.8217 341.12 18.0746 340.71 18.2386C340.3 18.4027 339.844 18.4847 339.343 18.4847C338.942 18.4847 338.568 18.4346 338.222 18.3344C337.875 18.2295 337.563 18.0677 337.285 17.849C337.012 17.6302 336.775 17.3545 336.574 17.0219C336.378 16.6846 336.228 16.2836 336.123 15.8187C336.018 15.3539 335.966 14.8207 335.966 14.2191V12.4965C335.966 11.7491 336.046 11.1088 336.205 10.5756C336.369 10.0378 336.599 9.59802 336.896 9.25623C337.196 8.91443 337.552 8.66378 337.962 8.50427C338.372 8.34021 338.828 8.25818 339.329 8.25818C339.73 8.25818 340.102 8.31059 340.443 8.41541C340.79 8.51567 341.102 8.67289 341.38 8.88708C341.658 9.10128 341.895 9.37699 342.091 9.71423C342.287 10.0469 342.437 10.4457 342.542 10.9105C342.647 11.3708 342.699 11.8995 342.699 12.4965ZM340.724 14.4789V12.2299C340.724 11.8698 340.703 11.5554 340.662 11.2865C340.626 11.0176 340.569 10.7898 340.491 10.6029C340.414 10.4115 340.318 10.2566 340.204 10.1381C340.09 10.0196 339.96 9.93298 339.814 9.8783C339.669 9.82361 339.507 9.79626 339.329 9.79626C339.106 9.79626 338.908 9.83956 338.734 9.92615C338.566 10.0127 338.422 10.1517 338.304 10.3431C338.185 10.53 338.094 10.7806 338.03 11.0951C337.971 11.405 337.941 11.7832 337.941 12.2299V14.4789C337.941 14.8389 337.96 15.1556 337.996 15.4291C338.037 15.7025 338.096 15.9372 338.174 16.1332C338.256 16.3246 338.352 16.4818 338.461 16.6049C338.575 16.7233 338.705 16.8099 338.851 16.8646C339.001 16.9193 339.165 16.9467 339.343 16.9467C339.562 16.9467 339.755 16.9034 339.924 16.8168C340.097 16.7256 340.243 16.5844 340.361 16.3929C340.484 16.197 340.576 15.9418 340.635 15.6273C340.694 15.3129 340.724 14.9301 340.724 14.4789ZM350.848 16.8099V18.348H344.039V17.0355L347.259 13.5834C347.582 13.2233 347.838 12.9066 348.024 12.6332C348.211 12.3552 348.346 12.1068 348.428 11.8881C348.514 11.6648 348.558 11.4528 348.558 11.2523C348.558 10.9515 348.507 10.6941 348.407 10.4799C348.307 10.2611 348.159 10.0925 347.963 9.974C347.771 9.85551 347.535 9.79626 347.252 9.79626C346.951 9.79626 346.691 9.86918 346.473 10.015C346.258 10.1608 346.094 10.3636 345.98 10.6234C345.871 10.8832 345.816 11.1771 345.816 11.5052H343.841C343.841 10.9128 343.982 10.3705 344.265 9.8783C344.547 9.38155 344.946 8.98735 345.461 8.69568C345.976 8.39945 346.587 8.25134 347.293 8.25134C347.99 8.25134 348.578 8.36528 349.057 8.59314C349.54 8.81645 349.904 9.14001 350.15 9.56384C350.401 9.98311 350.526 10.4844 350.526 11.0677C350.526 11.3959 350.474 11.7172 350.369 12.0316C350.264 12.3415 350.114 12.6514 349.918 12.9613C349.727 13.2666 349.494 13.5765 349.221 13.891C348.947 14.2054 348.644 14.5313 348.312 14.8685L346.582 16.8099H350.848ZM358.777 12.4965V14.2191C358.777 14.9665 358.698 15.6114 358.538 16.1537C358.379 16.6914 358.148 17.1335 357.848 17.4799C357.551 17.8217 357.198 18.0746 356.788 18.2386C356.378 18.4027 355.922 18.4847 355.421 18.4847C355.02 18.4847 354.646 18.4346 354.3 18.3344C353.953 18.2295 353.641 18.0677 353.363 17.849C353.09 17.6302 352.853 17.3545 352.652 17.0219C352.456 16.6846 352.306 16.2836 352.201 15.8187C352.096 15.3539 352.044 14.8207 352.044 14.2191V12.4965C352.044 11.7491 352.124 11.1088 352.283 10.5756C352.447 10.0378 352.677 9.59802 352.974 9.25623C353.274 8.91443 353.63 8.66378 354.04 8.50427C354.45 8.34021 354.906 8.25818 355.407 8.25818C355.808 8.25818 356.18 8.31059 356.521 8.41541C356.868 8.51567 357.18 8.67289 357.458 8.88708C357.736 9.10128 357.973 9.37699 358.169 9.71423C358.365 10.0469 358.515 10.4457 358.62 10.9105C358.725 11.3708 358.777 11.8995 358.777 12.4965ZM356.802 14.4789V12.2299C356.802 11.8698 356.781 11.5554 356.74 11.2865C356.704 11.0176 356.647 10.7898 356.569 10.6029C356.492 10.4115 356.396 10.2566 356.282 10.1381C356.168 10.0196 356.038 9.93298 355.893 9.8783C355.747 9.82361 355.585 9.79626 355.407 9.79626C355.184 9.79626 354.986 9.83956 354.812 9.92615C354.644 10.0127 354.5 10.1517 354.382 10.3431C354.263 10.53 354.172 10.7806 354.108 11.0951C354.049 11.405 354.02 11.7832 354.02 12.2299V14.4789C354.02 14.8389 354.038 15.1556 354.074 15.4291C354.115 15.7025 354.174 15.9372 354.252 16.1332C354.334 16.3246 354.43 16.4818 354.539 16.6049C354.653 16.7233 354.783 16.8099 354.929 16.8646C355.079 16.9193 355.243 16.9467 355.421 16.9467C355.64 16.9467 355.833 16.9034 356.002 16.8168C356.175 16.7256 356.321 16.5844 356.439 16.3929C356.562 16.197 356.654 15.9418 356.713 15.6273C356.772 15.3129 356.802 14.9301 356.802 14.4789Z" fill="black"/>
<path d="M576.2 12.517H577.253C577.59 12.517 577.868 12.46 578.087 12.3461C578.306 12.2276 578.467 12.0635 578.572 11.8539C578.682 11.6397 578.736 11.3913 578.736 11.1088C578.736 10.8536 578.686 10.628 578.586 10.432C578.49 10.2315 578.342 10.0765 578.142 9.96716C577.941 9.85323 577.688 9.79626 577.383 9.79626C577.141 9.79626 576.918 9.84412 576.713 9.93982C576.508 10.0355 576.344 10.17 576.221 10.3431C576.098 10.5163 576.036 10.726 576.036 10.972H574.061C574.061 10.4252 574.206 9.94893 574.498 9.54333C574.794 9.13774 575.191 8.821 575.688 8.59314C576.184 8.36528 576.731 8.25134 577.328 8.25134C578.003 8.25134 578.593 8.36072 579.099 8.57947C579.604 8.79366 579.999 9.11039 580.281 9.52966C580.564 9.94893 580.705 10.4685 580.705 11.0883C580.705 11.4027 580.632 11.708 580.486 12.0043C580.34 12.2959 580.131 12.5603 579.857 12.7972C579.589 13.0297 579.26 13.2165 578.873 13.3578C578.486 13.4945 578.05 13.5629 577.567 13.5629H576.2V12.517ZM576.2 14.014V12.9955H577.567C578.11 12.9955 578.586 13.057 578.996 13.1801C579.406 13.3031 579.75 13.4808 580.028 13.7133C580.306 13.9411 580.516 14.2123 580.657 14.5267C580.799 14.8366 580.869 15.1807 580.869 15.559C580.869 16.0238 580.78 16.4385 580.603 16.8031C580.425 17.1631 580.174 17.4685 579.851 17.7191C579.532 17.9698 579.158 18.1612 578.729 18.2933C578.301 18.4209 577.834 18.4847 577.328 18.4847C576.909 18.4847 576.496 18.4278 576.091 18.3138C575.69 18.1954 575.325 18.0199 574.997 17.7875C574.674 17.5505 574.414 17.2543 574.218 16.8988C574.026 16.5388 573.931 16.1127 573.931 15.6205H575.906C575.906 15.8757 575.97 16.1036 576.098 16.3041C576.225 16.5046 576.401 16.6618 576.624 16.7758C576.852 16.8897 577.105 16.9467 577.383 16.9467C577.697 16.9467 577.966 16.8897 578.189 16.7758C578.417 16.6573 578.59 16.4932 578.709 16.2836C578.832 16.0694 578.894 15.821 578.894 15.5385C578.894 15.1739 578.827 14.8822 578.695 14.6635C578.563 14.4401 578.374 14.2761 578.128 14.1713C577.882 14.0664 577.59 14.014 577.253 14.014H576.2ZM587.021 8.37439V18.348H585.053V10.6439L582.688 11.3959V9.84412L586.81 8.37439H587.021ZM590.439 17.3978C590.439 17.1062 590.54 16.8623 590.74 16.6664C590.945 16.4704 591.216 16.3724 591.554 16.3724C591.891 16.3724 592.16 16.4704 592.36 16.6664C592.565 16.8623 592.668 17.1062 592.668 17.3978C592.668 17.6895 592.565 17.9333 592.36 18.1293C592.16 18.3252 591.891 18.4232 591.554 18.4232C591.216 18.4232 590.945 18.3252 590.74 18.1293C590.54 17.9333 590.439 17.6895 590.439 17.3978ZM601.021 12.4965V14.2191C601.021 14.9665 600.942 15.6114 600.782 16.1537C600.623 16.6914 600.393 17.1335 600.092 17.4799C599.796 17.8217 599.442 18.0746 599.032 18.2386C598.622 18.4027 598.166 18.4847 597.665 18.4847C597.264 18.4847 596.89 18.4346 596.544 18.3344C596.198 18.2295 595.885 18.0677 595.607 17.849C595.334 17.6302 595.097 17.3545 594.896 17.0219C594.701 16.6846 594.55 16.2836 594.445 15.8187C594.34 15.3539 594.288 14.8207 594.288 14.2191V12.4965C594.288 11.7491 594.368 11.1088 594.527 10.5756C594.691 10.0378 594.922 9.59802 595.218 9.25623C595.519 8.91443 595.874 8.66378 596.284 8.50427C596.694 8.34021 597.15 8.25818 597.651 8.25818C598.052 8.25818 598.424 8.31059 598.766 8.41541C599.112 8.51567 599.424 8.67289 599.702 8.88708C599.98 9.10128 600.217 9.37699 600.413 9.71423C600.609 10.0469 600.759 10.4457 600.864 10.9105C600.969 11.3708 601.021 11.8995 601.021 12.4965ZM599.046 14.4789V12.2299C599.046 11.8698 599.025 11.5554 598.984 11.2865C598.948 11.0176 598.891 10.7898 598.813 10.6029C598.736 10.4115 598.64 10.2566 598.526 10.1381C598.412 10.0196 598.283 9.93298 598.137 9.8783C597.991 9.82361 597.829 9.79626 597.651 9.79626C597.428 9.79626 597.23 9.83956 597.057 9.92615C596.888 10.0127 596.744 10.1517 596.626 10.3431C596.507 10.53 596.416 10.7806 596.353 11.0951C596.293 11.405 596.264 11.7832 596.264 12.2299V14.4789C596.264 14.8389 596.282 15.1556 596.318 15.4291C596.359 15.7025 596.419 15.9372 596.496 16.1332C596.578 16.3246 596.674 16.4818 596.783 16.6049C596.897 16.7233 597.027 16.8099 597.173 16.8646C597.323 16.9193 597.487 16.9467 597.665 16.9467C597.884 16.9467 598.077 16.9034 598.246 16.8168C598.419 16.7256 598.565 16.5844 598.684 16.3929C598.807 16.197 598.898 15.9418 598.957 15.6273C599.016 15.3129 599.046 14.9301 599.046 14.4789ZM604.378 12.517H605.431C605.768 12.517 606.046 12.46 606.265 12.3461C606.483 12.2276 606.645 12.0635 606.75 11.8539C606.859 11.6397 606.914 11.3913 606.914 11.1088C606.914 10.8536 606.864 10.628 606.764 10.432C606.668 10.2315 606.52 10.0765 606.319 9.96716C606.119 9.85323 605.866 9.79626 605.561 9.79626C605.319 9.79626 605.096 9.84412 604.891 9.93982C604.686 10.0355 604.521 10.17 604.398 10.3431C604.275 10.5163 604.214 10.726 604.214 10.972H602.238C602.238 10.4252 602.384 9.94893 602.676 9.54333C602.972 9.13774 603.368 8.821 603.865 8.59314C604.362 8.36528 604.909 8.25134 605.506 8.25134C606.18 8.25134 606.771 8.36072 607.276 8.57947C607.782 8.79366 608.176 9.11039 608.459 9.52966C608.742 9.94893 608.883 10.4685 608.883 11.0883C608.883 11.4027 608.81 11.708 608.664 12.0043C608.518 12.2959 608.309 12.5603 608.035 12.7972C607.766 13.0297 607.438 13.2165 607.051 13.3578C606.663 13.4945 606.228 13.5629 605.745 13.5629H604.378V12.517ZM604.378 14.014V12.9955H605.745C606.287 12.9955 606.764 13.057 607.174 13.1801C607.584 13.3031 607.928 13.4808 608.206 13.7133C608.484 13.9411 608.694 14.2123 608.835 14.5267C608.976 14.8366 609.047 15.1807 609.047 15.559C609.047 16.0238 608.958 16.4385 608.78 16.8031C608.603 17.1631 608.352 17.4685 608.028 17.7191C607.709 17.9698 607.336 18.1612 606.907 18.2933C606.479 18.4209 606.012 18.4847 605.506 18.4847C605.087 18.4847 604.674 18.4278 604.269 18.3138C603.868 18.1954 603.503 18.0199 603.175 17.7875C602.851 17.5505 602.591 17.2543 602.396 16.8988C602.204 16.5388 602.108 16.1127 602.108 15.6205H604.084C604.084 15.8757 604.148 16.1036 604.275 16.3041C604.403 16.5046 604.578 16.6618 604.802 16.7758C605.03 16.8897 605.283 16.9467 605.561 16.9467C605.875 16.9467 606.144 16.8897 606.367 16.7758C606.595 16.6573 606.768 16.4932 606.887 16.2836C607.01 16.0694 607.071 15.821 607.071 15.5385C607.071 15.1739 607.005 14.8822 606.873 14.6635C606.741 14.4401 606.552 14.2761 606.306 14.1713C606.06 14.0664 605.768 14.014 605.431 14.014H604.378ZM610.578 17.3978C610.578 17.1062 610.678 16.8623 610.879 16.6664C611.084 16.4704 611.355 16.3724 611.692 16.3724C612.03 16.3724 612.299 16.4704 612.499 16.6664C612.704 16.8623 612.807 17.1062 612.807 17.3978C612.807 17.6895 612.704 17.9333 612.499 18.1293C612.299 18.3252 612.03 18.4232 611.692 18.4232C611.355 18.4232 611.084 18.3252 610.879 18.1293C610.678 17.9333 610.578 17.6895 610.578 17.3978ZM621.27 16.8099V18.348H614.461V17.0355L617.681 13.5834C618.004 13.2233 618.259 12.9066 618.446 12.6332C618.633 12.3552 618.768 12.1068 618.85 11.8881C618.936 11.6648 618.979 11.4528 618.979 11.2523C618.979 10.9515 618.929 10.6941 618.829 10.4799C618.729 10.2611 618.581 10.0925 618.385 9.974C618.193 9.85551 617.956 9.79626 617.674 9.79626C617.373 9.79626 617.113 9.86918 616.895 10.015C616.68 10.1608 616.516 10.3636 616.402 10.6234C616.293 10.8832 616.238 11.1771 616.238 11.5052H614.263C614.263 10.9128 614.404 10.3705 614.687 9.8783C614.969 9.38155 615.368 8.98735 615.883 8.69568C616.398 8.39945 617.008 8.25134 617.715 8.25134C618.412 8.25134 619 8.36528 619.479 8.59314C619.962 8.81645 620.326 9.14001 620.572 9.56384C620.823 9.98311 620.948 10.4844 620.948 11.0677C620.948 11.3959 620.896 11.7172 620.791 12.0316C620.686 12.3415 620.536 12.6514 620.34 12.9613C620.148 13.2666 619.916 13.5765 619.643 13.891C619.369 14.2054 619.066 14.5313 618.733 14.8685L617.004 16.8099H621.27ZM629.199 12.4965V14.2191C629.199 14.9665 629.119 15.6114 628.96 16.1537C628.8 16.6914 628.57 17.1335 628.27 17.4799C627.973 17.8217 627.62 18.0746 627.21 18.2386C626.8 18.4027 626.344 18.4847 625.843 18.4847C625.442 18.4847 625.068 18.4346 624.722 18.3344C624.375 18.2295 624.063 18.0677 623.785 17.849C623.512 17.6302 623.275 17.3545 623.074 17.0219C622.878 16.6846 622.728 16.2836 622.623 15.8187C622.518 15.3539 622.466 14.8207 622.466 14.2191V12.4965C622.466 11.7491 622.546 11.1088 622.705 10.5756C622.869 10.0378 623.099 9.59802 623.396 9.25623C623.696 8.91443 624.052 8.66378 624.462 8.50427C624.872 8.34021 625.328 8.25818 625.829 8.25818C626.23 8.25818 626.602 8.31059 626.943 8.41541C627.29 8.51567 627.602 8.67289 627.88 8.88708C628.158 9.10128 628.395 9.37699 628.591 9.71423C628.787 10.0469 628.937 10.4457 629.042 10.9105C629.147 11.3708 629.199 11.8995 629.199 12.4965ZM627.224 14.4789V12.2299C627.224 11.8698 627.203 11.5554 627.162 11.2865C627.126 11.0176 627.069 10.7898 626.991 10.6029C626.914 10.4115 626.818 10.2566 626.704 10.1381C626.59 10.0196 626.46 9.93298 626.314 9.8783C626.169 9.82361 626.007 9.79626 625.829 9.79626C625.606 9.79626 625.408 9.83956 625.234 9.92615C625.066 10.0127 624.922 10.1517 624.804 10.3431C624.685 10.53 624.594 10.7806 624.53 11.0951C624.471 11.405 624.441 11.7832 624.441 12.2299V14.4789C624.441 14.8389 624.46 15.1556 624.496 15.4291C624.537 15.7025 624.596 15.9372 624.674 16.1332C624.756 16.3246 624.852 16.4818 624.961 16.6049C625.075 16.7233 625.205 16.8099 625.351 16.8646C625.501 16.9193 625.665 16.9467 625.843 16.9467C626.062 16.9467 626.255 16.9034 626.424 16.8168C626.597 16.7256 626.743 16.5844 626.861 16.3929C626.984 16.197 627.076 15.9418 627.135 15.6273C627.194 15.3129 627.224 14.9301 627.224 14.4789ZM637.348 16.8099V18.348H630.539V17.0355L633.759 13.5834C634.082 13.2233 634.338 12.9066 634.524 12.6332C634.711 12.3552 634.846 12.1068 634.928 11.8881C635.014 11.6648 635.058 11.4528 635.058 11.2523C635.058 10.9515 635.007 10.6941 634.907 10.4799C634.807 10.2611 634.659 10.0925 634.463 9.974C634.271 9.85551 634.035 9.79626 633.752 9.79626C633.451 9.79626 633.191 9.86918 632.973 10.015C632.758 10.1608 632.594 10.3636 632.48 10.6234C632.371 10.8832 632.316 11.1771 632.316 11.5052H630.341C630.341 10.9128 630.482 10.3705 630.765 9.8783C631.047 9.38155 631.446 8.98735 631.961 8.69568C632.476 8.39945 633.087 8.25134 633.793 8.25134C634.49 8.25134 635.078 8.36528 635.557 8.59314C636.04 8.81645 636.404 9.14001 636.65 9.56384C636.901 9.98311 637.026 10.4844 637.026 11.0677C637.026 11.3959 636.974 11.7172 636.869 12.0316C636.764 12.3415 636.614 12.6514 636.418 12.9613C636.227 13.2666 635.994 13.5765 635.721 13.891C635.447 14.2054 635.144 14.5313 634.812 14.8685L633.082 16.8099H637.348ZM645.277 12.4965V14.2191C645.277 14.9665 645.198 15.6114 645.038 16.1537C644.879 16.6914 644.648 17.1335 644.348 17.4799C644.051 17.8217 643.698 18.0746 643.288 18.2386C642.878 18.4027 642.422 18.4847 641.921 18.4847C641.52 18.4847 641.146 18.4346 640.8 18.3344C640.453 18.2295 640.141 18.0677 639.863 17.849C639.59 17.6302 639.353 17.3545 639.152 17.0219C638.956 16.6846 638.806 16.2836 638.701 15.8187C638.596 15.3539 638.544 14.8207 638.544 14.2191V12.4965C638.544 11.7491 638.624 11.1088 638.783 10.5756C638.947 10.0378 639.177 9.59802 639.474 9.25623C639.774 8.91443 640.13 8.66378 640.54 8.50427C640.95 8.34021 641.406 8.25818 641.907 8.25818C642.308 8.25818 642.68 8.31059 643.021 8.41541C643.368 8.51567 643.68 8.67289 643.958 8.88708C644.236 9.10128 644.473 9.37699 644.669 9.71423C644.865 10.0469 645.015 10.4457 645.12 10.9105C645.225 11.3708 645.277 11.8995 645.277 12.4965ZM643.302 14.4789V12.2299C643.302 11.8698 643.281 11.5554 643.24 11.2865C643.204 11.0176 643.147 10.7898 643.069 10.6029C642.992 10.4115 642.896 10.2566 642.782 10.1381C642.668 10.0196 642.538 9.93298 642.393 9.8783C642.247 9.82361 642.085 9.79626 641.907 9.79626C641.684 9.79626 641.486 9.83956 641.312 9.92615C641.144 10.0127 641 10.1517 640.882 10.3431C640.763 10.53 640.672 10.7806 640.608 11.0951C640.549 11.405 640.52 11.7832 640.52 12.2299V14.4789C640.52 14.8389 640.538 15.1556 640.574 15.4291C640.615 15.7025 640.674 15.9372 640.752 16.1332C640.834 16.3246 640.93 16.4818 641.039 16.6049C641.153 16.7233 641.283 16.8099 641.429 16.8646C641.579 16.9193 641.743 16.9467 641.921 16.9467C642.14 16.9467 642.333 16.9034 642.502 16.8168C642.675 16.7256 642.821 16.5844 642.939 16.3929C643.062 16.197 643.154 15.9418 643.213 15.6273C643.272 15.3129 643.302 14.9301 643.302 14.4789Z" fill="black"/>
<path d="M862.7 12.517H863.753C864.09 12.517 864.368 12.46 864.587 12.3461C864.806 12.2276 864.967 12.0635 865.072 11.8539C865.182 11.6397 865.236 11.3913 865.236 11.1088C865.236 10.8536 865.186 10.628 865.086 10.432C864.99 10.2315 864.842 10.0765 864.642 9.96716C864.441 9.85323 864.188 9.79626 863.883 9.79626C863.641 9.79626 863.418 9.84412 863.213 9.93982C863.008 10.0355 862.844 10.17 862.721 10.3431C862.598 10.5163 862.536 10.726 862.536 10.972H860.561C860.561 10.4252 860.706 9.94893 860.998 9.54333C861.294 9.13774 861.691 8.821 862.188 8.59314C862.684 8.36528 863.231 8.25134 863.828 8.25134C864.503 8.25134 865.093 8.36072 865.599 8.57947C866.104 8.79366 866.499 9.11039 866.781 9.52966C867.064 9.94893 867.205 10.4685 867.205 11.0883C867.205 11.4027 867.132 11.708 866.986 12.0043C866.84 12.2959 866.631 12.5603 866.357 12.7972C866.089 13.0297 865.76 13.2165 865.373 13.3578C864.986 13.4945 864.55 13.5629 864.067 13.5629H862.7V12.517ZM862.7 14.014V12.9955H864.067C864.61 12.9955 865.086 13.057 865.496 13.1801C865.906 13.3031 866.25 13.4808 866.528 13.7133C866.806 13.9411 867.016 14.2123 867.157 14.5267C867.299 14.8366 867.369 15.1807 867.369 15.559C867.369 16.0238 867.28 16.4385 867.103 16.8031C866.925 17.1631 866.674 17.4685 866.351 17.7191C866.032 17.9698 865.658 18.1612 865.229 18.2933C864.801 18.4209 864.334 18.4847 863.828 18.4847C863.409 18.4847 862.996 18.4278 862.591 18.3138C862.19 18.1954 861.825 18.0199 861.497 17.7875C861.174 17.5505 860.914 17.2543 860.718 16.8988C860.526 16.5388 860.431 16.1127 860.431 15.6205H862.406C862.406 15.8757 862.47 16.1036 862.598 16.3041C862.725 16.5046 862.901 16.6618 863.124 16.7758C863.352 16.8897 863.605 16.9467 863.883 16.9467C864.197 16.9467 864.466 16.8897 864.689 16.7758C864.917 16.6573 865.09 16.4932 865.209 16.2836C865.332 16.0694 865.394 15.821 865.394 15.5385C865.394 15.1739 865.327 14.8822 865.195 14.6635C865.063 14.4401 864.874 14.2761 864.628 14.1713C864.382 14.0664 864.09 14.014 863.753 14.014H862.7ZM873.521 8.37439V18.348H871.553V10.6439L869.188 11.3959V9.84412L873.31 8.37439H873.521ZM876.939 17.3978C876.939 17.1062 877.04 16.8623 877.24 16.6664C877.445 16.4704 877.716 16.3724 878.054 16.3724C878.391 16.3724 878.66 16.4704 878.86 16.6664C879.065 16.8623 879.168 17.1062 879.168 17.3978C879.168 17.6895 879.065 17.9333 878.86 18.1293C878.66 18.3252 878.391 18.4232 878.054 18.4232C877.716 18.4232 877.445 18.3252 877.24 18.1293C877.04 17.9333 876.939 17.6895 876.939 17.3978ZM887.521 12.4965V14.2191C887.521 14.9665 887.442 15.6114 887.282 16.1537C887.123 16.6914 886.893 17.1335 886.592 17.4799C886.296 17.8217 885.942 18.0746 885.532 18.2386C885.122 18.4027 884.666 18.4847 884.165 18.4847C883.764 18.4847 883.39 18.4346 883.044 18.3344C882.698 18.2295 882.385 18.0677 882.107 17.849C881.834 17.6302 881.597 17.3545 881.396 17.0219C881.201 16.6846 881.05 16.2836 880.945 15.8187C880.84 15.3539 880.788 14.8207 880.788 14.2191V12.4965C880.788 11.7491 880.868 11.1088 881.027 10.5756C881.191 10.0378 881.422 9.59802 881.718 9.25623C882.019 8.91443 882.374 8.66378 882.784 8.50427C883.194 8.34021 883.65 8.25818 884.151 8.25818C884.552 8.25818 884.924 8.31059 885.266 8.41541C885.612 8.51567 885.924 8.67289 886.202 8.88708C886.48 9.10128 886.717 9.37699 886.913 9.71423C887.109 10.0469 887.259 10.4457 887.364 10.9105C887.469 11.3708 887.521 11.8995 887.521 12.4965ZM885.546 14.4789V12.2299C885.546 11.8698 885.525 11.5554 885.484 11.2865C885.448 11.0176 885.391 10.7898 885.313 10.6029C885.236 10.4115 885.14 10.2566 885.026 10.1381C884.912 10.0196 884.783 9.93298 884.637 9.8783C884.491 9.82361 884.329 9.79626 884.151 9.79626C883.928 9.79626 883.73 9.83956 883.557 9.92615C883.388 10.0127 883.244 10.1517 883.126 10.3431C883.007 10.53 882.916 10.7806 882.853 11.0951C882.793 11.405 882.764 11.7832 882.764 12.2299V14.4789C882.764 14.8389 882.782 15.1556 882.818 15.4291C882.859 15.7025 882.919 15.9372 882.996 16.1332C883.078 16.3246 883.174 16.4818 883.283 16.6049C883.397 16.7233 883.527 16.8099 883.673 16.8646C883.823 16.9193 883.987 16.9467 884.165 16.9467C884.384 16.9467 884.577 16.9034 884.746 16.8168C884.919 16.7256 885.065 16.5844 885.184 16.3929C885.307 16.197 885.398 15.9418 885.457 15.6273C885.516 15.3129 885.546 14.9301 885.546 14.4789ZM890.878 12.517H891.931C892.268 12.517 892.546 12.46 892.765 12.3461C892.983 12.2276 893.145 12.0635 893.25 11.8539C893.359 11.6397 893.414 11.3913 893.414 11.1088C893.414 10.8536 893.364 10.628 893.264 10.432C893.168 10.2315 893.02 10.0765 892.819 9.96716C892.619 9.85323 892.366 9.79626 892.061 9.79626C891.819 9.79626 891.596 9.84412 891.391 9.93982C891.186 10.0355 891.021 10.17 890.898 10.3431C890.775 10.5163 890.714 10.726 890.714 10.972H888.738C888.738 10.4252 888.884 9.94893 889.176 9.54333C889.472 9.13774 889.868 8.821 890.365 8.59314C890.862 8.36528 891.409 8.25134 892.006 8.25134C892.68 8.25134 893.271 8.36072 893.776 8.57947C894.282 8.79366 894.676 9.11039 894.959 9.52966C895.242 9.94893 895.383 10.4685 895.383 11.0883C895.383 11.4027 895.31 11.708 895.164 12.0043C895.018 12.2959 894.809 12.5603 894.535 12.7972C894.266 13.0297 893.938 13.2165 893.551 13.3578C893.163 13.4945 892.728 13.5629 892.245 13.5629H890.878V12.517ZM890.878 14.014V12.9955H892.245C892.787 12.9955 893.264 13.057 893.674 13.1801C894.084 13.3031 894.428 13.4808 894.706 13.7133C894.984 13.9411 895.194 14.2123 895.335 14.5267C895.476 14.8366 895.547 15.1807 895.547 15.559C895.547 16.0238 895.458 16.4385 895.28 16.8031C895.103 17.1631 894.852 17.4685 894.528 17.7191C894.209 17.9698 893.836 18.1612 893.407 18.2933C892.979 18.4209 892.512 18.4847 892.006 18.4847C891.587 18.4847 891.174 18.4278 890.769 18.3138C890.368 18.1954 890.003 18.0199 889.675 17.7875C889.351 17.5505 889.091 17.2543 888.896 16.8988C888.704 16.5388 888.608 16.1127 888.608 15.6205H890.584C890.584 15.8757 890.648 16.1036 890.775 16.3041C890.903 16.5046 891.078 16.6618 891.302 16.7758C891.53 16.8897 891.783 16.9467 892.061 16.9467C892.375 16.9467 892.644 16.8897 892.867 16.7758C893.095 16.6573 893.268 16.4932 893.387 16.2836C893.51 16.0694 893.571 15.821 893.571 15.5385C893.571 15.1739 893.505 14.8822 893.373 14.6635C893.241 14.4401 893.052 14.2761 892.806 14.1713C892.56 14.0664 892.268 14.014 891.931 14.014H890.878ZM897.078 17.3978C897.078 17.1062 897.178 16.8623 897.379 16.6664C897.584 16.4704 897.855 16.3724 898.192 16.3724C898.53 16.3724 898.799 16.4704 898.999 16.6664C899.204 16.8623 899.307 17.1062 899.307 17.3978C899.307 17.6895 899.204 17.9333 898.999 18.1293C898.799 18.3252 898.53 18.4232 898.192 18.4232C897.855 18.4232 897.584 18.3252 897.379 18.1293C897.178 17.9333 897.078 17.6895 897.078 17.3978ZM907.77 16.8099V18.348H900.961V17.0355L904.181 13.5834C904.504 13.2233 904.759 12.9066 904.946 12.6332C905.133 12.3552 905.268 12.1068 905.35 11.8881C905.436 11.6648 905.479 11.4528 905.479 11.2523C905.479 10.9515 905.429 10.6941 905.329 10.4799C905.229 10.2611 905.081 10.0925 904.885 9.974C904.693 9.85551 904.456 9.79626 904.174 9.79626C903.873 9.79626 903.613 9.86918 903.395 10.015C903.18 10.1608 903.016 10.3636 902.902 10.6234C902.793 10.8832 902.738 11.1771 902.738 11.5052H900.763C900.763 10.9128 900.904 10.3705 901.187 9.8783C901.469 9.38155 901.868 8.98735 902.383 8.69568C902.898 8.39945 903.508 8.25134 904.215 8.25134C904.912 8.25134 905.5 8.36528 905.979 8.59314C906.462 8.81645 906.826 9.14001 907.072 9.56384C907.323 9.98311 907.448 10.4844 907.448 11.0677C907.448 11.3959 907.396 11.7172 907.291 12.0316C907.186 12.3415 907.036 12.6514 906.84 12.9613C906.648 13.2666 906.416 13.5765 906.143 13.891C905.869 14.2054 905.566 14.5313 905.233 14.8685L903.504 16.8099H907.77ZM915.699 12.4965V14.2191C915.699 14.9665 915.619 15.6114 915.46 16.1537C915.3 16.6914 915.07 17.1335 914.77 17.4799C914.473 17.8217 914.12 18.0746 913.71 18.2386C913.3 18.4027 912.844 18.4847 912.343 18.4847C911.942 18.4847 911.568 18.4346 911.222 18.3344C910.875 18.2295 910.563 18.0677 910.285 17.849C910.012 17.6302 909.775 17.3545 909.574 17.0219C909.378 16.6846 909.228 16.2836 909.123 15.8187C909.018 15.3539 908.966 14.8207 908.966 14.2191V12.4965C908.966 11.7491 909.046 11.1088 909.205 10.5756C909.369 10.0378 909.599 9.59802 909.896 9.25623C910.196 8.91443 910.552 8.66378 910.962 8.50427C911.372 8.34021 911.828 8.25818 912.329 8.25818C912.73 8.25818 913.102 8.31059 913.443 8.41541C913.79 8.51567 914.102 8.67289 914.38 8.88708C914.658 9.10128 914.895 9.37699 915.091 9.71423C915.287 10.0469 915.437 10.4457 915.542 10.9105C915.647 11.3708 915.699 11.8995 915.699 12.4965ZM913.724 14.4789V12.2299C913.724 11.8698 913.703 11.5554 913.662 11.2865C913.626 11.0176 913.569 10.7898 913.491 10.6029C913.414 10.4115 913.318 10.2566 913.204 10.1381C913.09 10.0196 912.96 9.93298 912.814 9.8783C912.669 9.82361 912.507 9.79626 912.329 9.79626C912.106 9.79626 911.908 9.83956 911.734 9.92615C911.566 10.0127 911.422 10.1517 911.304 10.3431C911.185 10.53 911.094 10.7806 911.03 11.0951C910.971 11.405 910.941 11.7832 910.941 12.2299V14.4789C910.941 14.8389 910.96 15.1556 910.996 15.4291C911.037 15.7025 911.096 15.9372 911.174 16.1332C911.256 16.3246 911.352 16.4818 911.461 16.6049C911.575 16.7233 911.705 16.8099 911.851 16.8646C912.001 16.9193 912.165 16.9467 912.343 16.9467C912.562 16.9467 912.755 16.9034 912.924 16.8168C913.097 16.7256 913.243 16.5844 913.361 16.3929C913.484 16.197 913.576 15.9418 913.635 15.6273C913.694 15.3129 913.724 14.9301 913.724 14.4789ZM923.848 16.8099V18.348H917.039V17.0355L920.259 13.5834C920.582 13.2233 920.838 12.9066 921.024 12.6332C921.211 12.3552 921.346 12.1068 921.428 11.8881C921.514 11.6648 921.558 11.4528 921.558 11.2523C921.558 10.9515 921.507 10.6941 921.407 10.4799C921.307 10.2611 921.159 10.0925 920.963 9.974C920.771 9.85551 920.535 9.79626 920.252 9.79626C919.951 9.79626 919.691 9.86918 919.473 10.015C919.258 10.1608 919.094 10.3636 918.98 10.6234C918.871 10.8832 918.816 11.1771 918.816 11.5052H916.841C916.841 10.9128 916.982 10.3705 917.265 9.8783C917.547 9.38155 917.946 8.98735 918.461 8.69568C918.976 8.39945 919.587 8.25134 920.293 8.25134C920.99 8.25134 921.578 8.36528 922.057 8.59314C922.54 8.81645 922.904 9.14001 923.15 9.56384C923.401 9.98311 923.526 10.4844 923.526 11.0677C923.526 11.3959 923.474 11.7172 923.369 12.0316C923.264 12.3415 923.114 12.6514 922.918 12.9613C922.727 13.2666 922.494 13.5765 922.221 13.891C921.947 14.2054 921.644 14.5313 921.312 14.8685L919.582 16.8099H923.848ZM931.777 12.4965V14.2191C931.777 14.9665 931.698 15.6114 931.538 16.1537C931.379 16.6914 931.148 17.1335 930.848 17.4799C930.551 17.8217 930.198 18.0746 929.788 18.2386C929.378 18.4027 928.922 18.4847 928.421 18.4847C928.02 18.4847 927.646 18.4346 927.3 18.3344C926.953 18.2295 926.641 18.0677 926.363 17.849C926.09 17.6302 925.853 17.3545 925.652 17.0219C925.456 16.6846 925.306 16.2836 925.201 15.8187C925.096 15.3539 925.044 14.8207 925.044 14.2191V12.4965C925.044 11.7491 925.124 11.1088 925.283 10.5756C925.447 10.0378 925.677 9.59802 925.974 9.25623C926.274 8.91443 926.63 8.66378 927.04 8.50427C927.45 8.34021 927.906 8.25818 928.407 8.25818C928.808 8.25818 929.18 8.31059 929.521 8.41541C929.868 8.51567 930.18 8.67289 930.458 8.88708C930.736 9.10128 930.973 9.37699 931.169 9.71423C931.365 10.0469 931.515 10.4457 931.62 10.9105C931.725 11.3708 931.777 11.8995 931.777 12.4965ZM929.802 14.4789V12.2299C929.802 11.8698 929.781 11.5554 929.74 11.2865C929.704 11.0176 929.647 10.7898 929.569 10.6029C929.492 10.4115 929.396 10.2566 929.282 10.1381C929.168 10.0196 929.038 9.93298 928.893 9.8783C928.747 9.82361 928.585 9.79626 928.407 9.79626C928.184 9.79626 927.986 9.83956 927.812 9.92615C927.644 10.0127 927.5 10.1517 927.382 10.3431C927.263 10.53 927.172 10.7806 927.108 11.0951C927.049 11.405 927.02 11.7832 927.02 12.2299V14.4789C927.02 14.8389 927.038 15.1556 927.074 15.4291C927.115 15.7025 927.174 15.9372 927.252 16.1332C927.334 16.3246 927.43 16.4818 927.539 16.6049C927.653 16.7233 927.783 16.8099 927.929 16.8646C928.079 16.9193 928.243 16.9467 928.421 16.9467C928.64 16.9467 928.833 16.9034 929.002 16.8168C929.175 16.7256 929.321 16.5844 929.439 16.3929C929.562 16.197 929.654 15.9418 929.713 15.6273C929.772 15.3129 929.802 14.9301 929.802 14.4789Z" fill="black"/>
<path d="M1149.2 12.517H1150.25C1150.59 12.517 1150.87 12.46 1151.09 12.3461C1151.31 12.2276 1151.47 12.0635 1151.57 11.8539C1151.68 11.6397 1151.74 11.3913 1151.74 11.1088C1151.74 10.8536 1151.69 10.628 1151.59 10.432C1151.49 10.2315 1151.34 10.0765 1151.14 9.96716C1150.94 9.85323 1150.69 9.79626 1150.38 9.79626C1150.14 9.79626 1149.92 9.84412 1149.71 9.93982C1149.51 10.0355 1149.34 10.17 1149.22 10.3431C1149.1 10.5163 1149.04 10.726 1149.04 10.972H1147.06C1147.06 10.4252 1147.21 9.94893 1147.5 9.54333C1147.79 9.13774 1148.19 8.821 1148.69 8.59314C1149.18 8.36528 1149.73 8.25134 1150.33 8.25134C1151 8.25134 1151.59 8.36072 1152.1 8.57947C1152.6 8.79366 1153 9.11039 1153.28 9.52966C1153.56 9.94893 1153.71 10.4685 1153.71 11.0883C1153.71 11.4027 1153.63 11.708 1153.49 12.0043C1153.34 12.2959 1153.13 12.5603 1152.86 12.7972C1152.59 13.0297 1152.26 13.2165 1151.87 13.3578C1151.49 13.4945 1151.05 13.5629 1150.57 13.5629H1149.2V12.517ZM1149.2 14.014V12.9955H1150.57C1151.11 12.9955 1151.59 13.057 1152 13.1801C1152.41 13.3031 1152.75 13.4808 1153.03 13.7133C1153.31 13.9411 1153.52 14.2123 1153.66 14.5267C1153.8 14.8366 1153.87 15.1807 1153.87 15.559C1153.87 16.0238 1153.78 16.4385 1153.6 16.8031C1153.42 17.1631 1153.17 17.4685 1152.85 17.7191C1152.53 17.9698 1152.16 18.1612 1151.73 18.2933C1151.3 18.4209 1150.83 18.4847 1150.33 18.4847C1149.91 18.4847 1149.5 18.4278 1149.09 18.3138C1148.69 18.1954 1148.33 18.0199 1148 17.7875C1147.67 17.5505 1147.41 17.2543 1147.22 16.8988C1147.03 16.5388 1146.93 16.1127 1146.93 15.6205H1148.91C1148.91 15.8757 1148.97 16.1036 1149.1 16.3041C1149.23 16.5046 1149.4 16.6618 1149.62 16.7758C1149.85 16.8897 1150.1 16.9467 1150.38 16.9467C1150.7 16.9467 1150.97 16.8897 1151.19 16.7758C1151.42 16.6573 1151.59 16.4932 1151.71 16.2836C1151.83 16.0694 1151.89 15.821 1151.89 15.5385C1151.89 15.1739 1151.83 14.8822 1151.7 14.6635C1151.56 14.4401 1151.37 14.2761 1151.13 14.1713C1150.88 14.0664 1150.59 14.014 1150.25 14.014H1149.2ZM1160.02 8.37439V18.348H1158.05V10.6439L1155.69 11.3959V9.84412L1159.81 8.37439H1160.02ZM1163.44 17.3978C1163.44 17.1062 1163.54 16.8623 1163.74 16.6664C1163.95 16.4704 1164.22 16.3724 1164.55 16.3724C1164.89 16.3724 1165.16 16.4704 1165.36 16.6664C1165.57 16.8623 1165.67 17.1062 1165.67 17.3978C1165.67 17.6895 1165.57 17.9333 1165.36 18.1293C1165.16 18.3252 1164.89 18.4232 1164.55 18.4232C1164.22 18.4232 1163.95 18.3252 1163.74 18.1293C1163.54 17.9333 1163.44 17.6895 1163.44 17.3978ZM1174.02 12.4965V14.2191C1174.02 14.9665 1173.94 15.6114 1173.78 16.1537C1173.62 16.6914 1173.39 17.1335 1173.09 17.4799C1172.8 17.8217 1172.44 18.0746 1172.03 18.2386C1171.62 18.4027 1171.17 18.4847 1170.67 18.4847C1170.26 18.4847 1169.89 18.4346 1169.54 18.3344C1169.2 18.2295 1168.89 18.0677 1168.61 17.849C1168.33 17.6302 1168.1 17.3545 1167.9 17.0219C1167.7 16.6846 1167.55 16.2836 1167.45 15.8187C1167.34 15.3539 1167.29 14.8207 1167.29 14.2191V12.4965C1167.29 11.7491 1167.37 11.1088 1167.53 10.5756C1167.69 10.0378 1167.92 9.59802 1168.22 9.25623C1168.52 8.91443 1168.87 8.66378 1169.28 8.50427C1169.69 8.34021 1170.15 8.25818 1170.65 8.25818C1171.05 8.25818 1171.42 8.31059 1171.77 8.41541C1172.11 8.51567 1172.42 8.67289 1172.7 8.88708C1172.98 9.10128 1173.22 9.37699 1173.41 9.71423C1173.61 10.0469 1173.76 10.4457 1173.86 10.9105C1173.97 11.3708 1174.02 11.8995 1174.02 12.4965ZM1172.05 14.4789V12.2299C1172.05 11.8698 1172.03 11.5554 1171.98 11.2865C1171.95 11.0176 1171.89 10.7898 1171.81 10.6029C1171.74 10.4115 1171.64 10.2566 1171.53 10.1381C1171.41 10.0196 1171.28 9.93298 1171.14 9.8783C1170.99 9.82361 1170.83 9.79626 1170.65 9.79626C1170.43 9.79626 1170.23 9.83956 1170.06 9.92615C1169.89 10.0127 1169.74 10.1517 1169.63 10.3431C1169.51 10.53 1169.42 10.7806 1169.35 11.0951C1169.29 11.405 1169.26 11.7832 1169.26 12.2299V14.4789C1169.26 14.8389 1169.28 15.1556 1169.32 15.4291C1169.36 15.7025 1169.42 15.9372 1169.5 16.1332C1169.58 16.3246 1169.67 16.4818 1169.78 16.6049C1169.9 16.7233 1170.03 16.8099 1170.17 16.8646C1170.32 16.9193 1170.49 16.9467 1170.67 16.9467C1170.88 16.9467 1171.08 16.9034 1171.25 16.8168C1171.42 16.7256 1171.57 16.5844 1171.68 16.3929C1171.81 16.197 1171.9 15.9418 1171.96 15.6273C1172.02 15.3129 1172.05 14.9301 1172.05 14.4789ZM1177.38 12.517H1178.43C1178.77 12.517 1179.05 12.46 1179.26 12.3461C1179.48 12.2276 1179.65 12.0635 1179.75 11.8539C1179.86 11.6397 1179.91 11.3913 1179.91 11.1088C1179.91 10.8536 1179.86 10.628 1179.76 10.432C1179.67 10.2315 1179.52 10.0765 1179.32 9.96716C1179.12 9.85323 1178.87 9.79626 1178.56 9.79626C1178.32 9.79626 1178.1 9.84412 1177.89 9.93982C1177.69 10.0355 1177.52 10.17 1177.4 10.3431C1177.28 10.5163 1177.21 10.726 1177.21 10.972H1175.24C1175.24 10.4252 1175.38 9.94893 1175.68 9.54333C1175.97 9.13774 1176.37 8.821 1176.87 8.59314C1177.36 8.36528 1177.91 8.25134 1178.51 8.25134C1179.18 8.25134 1179.77 8.36072 1180.28 8.57947C1180.78 8.79366 1181.18 9.11039 1181.46 9.52966C1181.74 9.94893 1181.88 10.4685 1181.88 11.0883C1181.88 11.4027 1181.81 11.708 1181.66 12.0043C1181.52 12.2959 1181.31 12.5603 1181.04 12.7972C1180.77 13.0297 1180.44 13.2165 1180.05 13.3578C1179.66 13.4945 1179.23 13.5629 1178.75 13.5629H1177.38V12.517ZM1177.38 14.014V12.9955H1178.75C1179.29 12.9955 1179.76 13.057 1180.17 13.1801C1180.58 13.3031 1180.93 13.4808 1181.21 13.7133C1181.48 13.9411 1181.69 14.2123 1181.83 14.5267C1181.98 14.8366 1182.05 15.1807 1182.05 15.559C1182.05 16.0238 1181.96 16.4385 1181.78 16.8031C1181.6 17.1631 1181.35 17.4685 1181.03 17.7191C1180.71 17.9698 1180.34 18.1612 1179.91 18.2933C1179.48 18.4209 1179.01 18.4847 1178.51 18.4847C1178.09 18.4847 1177.67 18.4278 1177.27 18.3138C1176.87 18.1954 1176.5 18.0199 1176.17 17.7875C1175.85 17.5505 1175.59 17.2543 1175.4 16.8988C1175.2 16.5388 1175.11 16.1127 1175.11 15.6205H1177.08C1177.08 15.8757 1177.15 16.1036 1177.28 16.3041C1177.4 16.5046 1177.58 16.6618 1177.8 16.7758C1178.03 16.8897 1178.28 16.9467 1178.56 16.9467C1178.88 16.9467 1179.14 16.8897 1179.37 16.7758C1179.6 16.6573 1179.77 16.4932 1179.89 16.2836C1180.01 16.0694 1180.07 15.821 1180.07 15.5385C1180.07 15.1739 1180.01 14.8822 1179.87 14.6635C1179.74 14.4401 1179.55 14.2761 1179.31 14.1713C1179.06 14.0664 1178.77 14.014 1178.43 14.014H1177.38ZM1183.58 17.3978C1183.58 17.1062 1183.68 16.8623 1183.88 16.6664C1184.08 16.4704 1184.36 16.3724 1184.69 16.3724C1185.03 16.3724 1185.3 16.4704 1185.5 16.6664C1185.7 16.8623 1185.81 17.1062 1185.81 17.3978C1185.81 17.6895 1185.7 17.9333 1185.5 18.1293C1185.3 18.3252 1185.03 18.4232 1184.69 18.4232C1184.36 18.4232 1184.08 18.3252 1183.88 18.1293C1183.68 17.9333 1183.58 17.6895 1183.58 17.3978ZM1194.27 16.8099V18.348H1187.46V17.0355L1190.68 13.5834C1191 13.2233 1191.26 12.9066 1191.45 12.6332C1191.63 12.3552 1191.77 12.1068 1191.85 11.8881C1191.94 11.6648 1191.98 11.4528 1191.98 11.2523C1191.98 10.9515 1191.93 10.6941 1191.83 10.4799C1191.73 10.2611 1191.58 10.0925 1191.38 9.974C1191.19 9.85551 1190.96 9.79626 1190.67 9.79626C1190.37 9.79626 1190.11 9.86918 1189.89 10.015C1189.68 10.1608 1189.52 10.3636 1189.4 10.6234C1189.29 10.8832 1189.24 11.1771 1189.24 11.5052H1187.26C1187.26 10.9128 1187.4 10.3705 1187.69 9.8783C1187.97 9.38155 1188.37 8.98735 1188.88 8.69568C1189.4 8.39945 1190.01 8.25134 1190.71 8.25134C1191.41 8.25134 1192 8.36528 1192.48 8.59314C1192.96 8.81645 1193.33 9.14001 1193.57 9.56384C1193.82 9.98311 1193.95 10.4844 1193.95 11.0677C1193.95 11.3959 1193.9 11.7172 1193.79 12.0316C1193.69 12.3415 1193.54 12.6514 1193.34 12.9613C1193.15 13.2666 1192.92 13.5765 1192.64 13.891C1192.37 14.2054 1192.07 14.5313 1191.73 14.8685L1190 16.8099H1194.27ZM1202.2 12.4965V14.2191C1202.2 14.9665 1202.12 15.6114 1201.96 16.1537C1201.8 16.6914 1201.57 17.1335 1201.27 17.4799C1200.97 17.8217 1200.62 18.0746 1200.21 18.2386C1199.8 18.4027 1199.34 18.4847 1198.84 18.4847C1198.44 18.4847 1198.07 18.4346 1197.72 18.3344C1197.38 18.2295 1197.06 18.0677 1196.79 17.849C1196.51 17.6302 1196.27 17.3545 1196.07 17.0219C1195.88 16.6846 1195.73 16.2836 1195.62 15.8187C1195.52 15.3539 1195.47 14.8207 1195.47 14.2191V12.4965C1195.47 11.7491 1195.55 11.1088 1195.71 10.5756C1195.87 10.0378 1196.1 9.59802 1196.4 9.25623C1196.7 8.91443 1197.05 8.66378 1197.46 8.50427C1197.87 8.34021 1198.33 8.25818 1198.83 8.25818C1199.23 8.25818 1199.6 8.31059 1199.94 8.41541C1200.29 8.51567 1200.6 8.67289 1200.88 8.88708C1201.16 9.10128 1201.39 9.37699 1201.59 9.71423C1201.79 10.0469 1201.94 10.4457 1202.04 10.9105C1202.15 11.3708 1202.2 11.8995 1202.2 12.4965ZM1200.22 14.4789V12.2299C1200.22 11.8698 1200.2 11.5554 1200.16 11.2865C1200.13 11.0176 1200.07 10.7898 1199.99 10.6029C1199.91 10.4115 1199.82 10.2566 1199.7 10.1381C1199.59 10.0196 1199.46 9.93298 1199.31 9.8783C1199.17 9.82361 1199.01 9.79626 1198.83 9.79626C1198.61 9.79626 1198.41 9.83956 1198.23 9.92615C1198.07 10.0127 1197.92 10.1517 1197.8 10.3431C1197.69 10.53 1197.59 10.7806 1197.53 11.0951C1197.47 11.405 1197.44 11.7832 1197.44 12.2299V14.4789C1197.44 14.8389 1197.46 15.1556 1197.5 15.4291C1197.54 15.7025 1197.6 15.9372 1197.67 16.1332C1197.76 16.3246 1197.85 16.4818 1197.96 16.6049C1198.07 16.7233 1198.2 16.8099 1198.35 16.8646C1198.5 16.9193 1198.67 16.9467 1198.84 16.9467C1199.06 16.9467 1199.26 16.9034 1199.42 16.8168C1199.6 16.7256 1199.74 16.5844 1199.86 16.3929C1199.98 16.197 1200.08 15.9418 1200.13 15.6273C1200.19 15.3129 1200.22 14.9301 1200.22 14.4789ZM1210.35 16.8099V18.348H1203.54V17.0355L1206.76 13.5834C1207.08 13.2233 1207.34 12.9066 1207.52 12.6332C1207.71 12.3552 1207.85 12.1068 1207.93 11.8881C1208.01 11.6648 1208.06 11.4528 1208.06 11.2523C1208.06 10.9515 1208.01 10.6941 1207.91 10.4799C1207.81 10.2611 1207.66 10.0925 1207.46 9.974C1207.27 9.85551 1207.03 9.79626 1206.75 9.79626C1206.45 9.79626 1206.19 9.86918 1205.97 10.015C1205.76 10.1608 1205.59 10.3636 1205.48 10.6234C1205.37 10.8832 1205.32 11.1771 1205.32 11.5052H1203.34C1203.34 10.9128 1203.48 10.3705 1203.76 9.8783C1204.05 9.38155 1204.45 8.98735 1204.96 8.69568C1205.48 8.39945 1206.09 8.25134 1206.79 8.25134C1207.49 8.25134 1208.08 8.36528 1208.56 8.59314C1209.04 8.81645 1209.4 9.14001 1209.65 9.56384C1209.9 9.98311 1210.03 10.4844 1210.03 11.0677C1210.03 11.3959 1209.97 11.7172 1209.87 12.0316C1209.76 12.3415 1209.61 12.6514 1209.42 12.9613C1209.23 13.2666 1208.99 13.5765 1208.72 13.891C1208.45 14.2054 1208.14 14.5313 1207.81 14.8685L1206.08 16.8099H1210.35ZM1218.28 12.4965V14.2191C1218.28 14.9665 1218.2 15.6114 1218.04 16.1537C1217.88 16.6914 1217.65 17.1335 1217.35 17.4799C1217.05 17.8217 1216.7 18.0746 1216.29 18.2386C1215.88 18.4027 1215.42 18.4847 1214.92 18.4847C1214.52 18.4847 1214.15 18.4346 1213.8 18.3344C1213.45 18.2295 1213.14 18.0677 1212.86 17.849C1212.59 17.6302 1212.35 17.3545 1212.15 17.0219C1211.96 16.6846 1211.81 16.2836 1211.7 15.8187C1211.6 15.3539 1211.54 14.8207 1211.54 14.2191V12.4965C1211.54 11.7491 1211.62 11.1088 1211.78 10.5756C1211.95 10.0378 1212.18 9.59802 1212.47 9.25623C1212.77 8.91443 1213.13 8.66378 1213.54 8.50427C1213.95 8.34021 1214.41 8.25818 1214.91 8.25818C1215.31 8.25818 1215.68 8.31059 1216.02 8.41541C1216.37 8.51567 1216.68 8.67289 1216.96 8.88708C1217.24 9.10128 1217.47 9.37699 1217.67 9.71423C1217.86 10.0469 1218.02 10.4457 1218.12 10.9105C1218.22 11.3708 1218.28 11.8995 1218.28 12.4965ZM1216.3 14.4789V12.2299C1216.3 11.8698 1216.28 11.5554 1216.24 11.2865C1216.2 11.0176 1216.15 10.7898 1216.07 10.6029C1215.99 10.4115 1215.9 10.2566 1215.78 10.1381C1215.67 10.0196 1215.54 9.93298 1215.39 9.8783C1215.25 9.82361 1215.08 9.79626 1214.91 9.79626C1214.68 9.79626 1214.49 9.83956 1214.31 9.92615C1214.14 10.0127 1214 10.1517 1213.88 10.3431C1213.76 10.53 1213.67 10.7806 1213.61 11.0951C1213.55 11.405 1213.52 11.7832 1213.52 12.2299V14.4789C1213.52 14.8389 1213.54 15.1556 1213.57 15.4291C1213.62 15.7025 1213.67 15.9372 1213.75 16.1332C1213.83 16.3246 1213.93 16.4818 1214.04 16.6049C1214.15 16.7233 1214.28 16.8099 1214.43 16.8646C1214.58 16.9193 1214.74 16.9467 1214.92 16.9467C1215.14 16.9467 1215.33 16.9034 1215.5 16.8168C1215.68 16.7256 1215.82 16.5844 1215.94 16.3929C1216.06 16.197 1216.15 15.9418 1216.21 15.6273C1216.27 15.3129 1216.3 14.9301 1216.3 14.4789Z" fill="black"/>
<path d="M2 2.34802H1218V0.348022H2V2.34802Z" fill="#D7D7D7" mask="url(#path-1-outside-1_1_318)"/>
</svg>
