<svg width="20" height="20" viewBox="0 0 20 20" fill="none" xmlns="http://www.w3.org/2000/svg">
<g clip-path="url(#clip0_204_36)">
<path d="M14.7275 4.67169C13.1515 3.9304 11.5762 3.18762 10.0017 2.44336L0.114998 7.10336L1.80666 7.92003L1.66666 7.94253V16.6667H2.5V8.64503L3.1 8.54169L3.33333 8.65419V13.0609C3.33333 13.8225 7.67166 16.005 8.54083 16.435C8.99271 16.6568 9.49003 16.7703 9.99339 16.7666C10.4967 16.7628 10.9923 16.6419 11.4408 16.4134C16.6667 13.7384 16.6667 13.2459 16.6667 13.0609V8.65419L19.8783 7.10669C19.8783 7.10669 16.7117 5.60586 14.7275 4.67169ZM15.8333 12.92C14.3033 13.9384 12.7095 14.8575 11.0617 15.6717C10.729 15.8415 10.3613 15.9314 9.9878 15.9343C9.6143 15.9372 9.24528 15.853 8.91 15.6884C7.25623 14.9016 5.6698 13.9804 4.16666 12.9342V9.05503L10 11.8659L15.8333 9.05503V12.92ZM10 10.9425L4.51333 8.29836L9.90417 7.36919L9.7625 6.54669L3.22083 7.67503L2.05166 7.11169L9.99916 3.36586C10.6867 3.69336 17.1017 6.71086 17.9508 7.11086L10 10.9425Z" fill="#EE9D00"/>
</g>
<defs>
<clipPath id="clip0_204_36">
<rect width="20" height="20" fill="white"/>
</clipPath>
</defs>
</svg>
