<svg width="20" height="20" viewBox="0 0 20 20" fill="none" xmlns="http://www.w3.org/2000/svg">
<path d="M3.5 15.0607C3.5 15.0607 3.41921 15.6903 3.5 15.9893C3.55612 16.1968 3.61 16.5464 3.825 16.5464H5.03212C5.24712 16.5464 5.301 16.1968 5.35712 15.9893C5.43792 15.6904 5.35712 15.0607 5.35712 15.0607" stroke="#03539D" stroke-linecap="round" stroke-linejoin="round"/>
<path d="M16.2679 9.02502H3.73212C2.70646 9.02502 1.875 9.85649 1.875 10.8821V13.2036C1.875 14.2293 2.70646 15.0607 3.73212 15.0607H16.2679C17.2935 15.0607 18.125 14.2293 18.125 13.2036V10.8821C18.125 9.85649 17.2935 9.02502 16.2679 9.02502Z" stroke="#03539D" stroke-linecap="round" stroke-linejoin="round"/>
<path d="M14.6429 15.0607C14.6429 15.0607 14.5621 15.6903 14.6429 15.9893C14.699 16.1968 14.7529 16.5464 14.9679 16.5464H16.175C16.39 16.5464 16.4439 16.1968 16.5 15.9893C16.5808 15.6904 16.5 15.0607 16.5 15.0607" stroke="#03539D" stroke-linecap="round" stroke-linejoin="round"/>
<path d="M4.42858 13.2036C4.94143 13.2036 5.35717 12.7879 5.35717 12.275C5.35717 11.7622 4.94143 11.3464 4.42858 11.3464C3.91574 11.3464 3.5 11.7622 3.5 12.275C3.5 12.7879 3.91574 13.2036 4.42858 13.2036Z" stroke="#03539D" stroke-linecap="round" stroke-linejoin="round"/>
<path d="M3.73212 9.02495L4.8 4.84637C4.9825 4.13228 5.78058 3.45349 6.51787 3.45349H13.4822C14.2195 3.45349 15.0175 4.13228 15.2 4.84637L16.2679 9.02495" stroke="#03539D" stroke-linecap="round" stroke-linejoin="round"/>
<path d="M15.5714 13.2036C16.0843 13.2036 16.5 12.7879 16.5 12.275C16.5 11.7622 16.0843 11.3464 15.5714 11.3464C15.0586 11.3464 14.6428 11.7622 14.6428 12.275C14.6428 12.7879 15.0586 13.2036 15.5714 13.2036Z" stroke="#03539D" stroke-linecap="round" stroke-linejoin="round"/>
</svg>
