<svg width="22" height="22" viewBox="0 0 22 22" fill="none" xmlns="http://www.w3.org/2000/svg">
<path d="M11 9.5C12.3807 9.5 13.5 8.38071 13.5 7C13.5 5.61929 12.3807 4.5 11 4.5C9.61929 4.5 8.5 5.61929 8.5 7C8.5 8.38071 9.61929 9.5 11 9.5Z" stroke="#A8A8A8" stroke-linecap="round"/>
<path d="M12.7679 5.5C12.9657 5.15743 13.2607 4.88121 13.6154 4.70625C13.9702 4.5313 14.3689 4.46548 14.7611 4.51711C15.1532 4.56874 15.5213 4.73551 15.8187 4.99632C16.1161 5.25713 16.3295 5.60028 16.4319 5.98236C16.5342 6.36445 16.521 6.76831 16.3939 7.14288C16.2667 7.51745 16.0313 7.8459 15.7175 8.08671C15.4037 8.32751 15.0255 8.46985 14.6308 8.49572C14.2361 8.52159 13.8426 8.42983 13.5 8.23205" stroke="#A8A8A8"/>
<path d="M9.2321 5.5C9.0343 5.15743 8.73935 4.88121 8.38458 4.70625C8.02981 4.5313 7.63113 4.46548 7.23895 4.51711C6.84677 4.56874 6.47871 4.73551 6.18131 4.99632C5.88391 5.25713 5.67053 5.60028 5.56815 5.98236C5.46577 6.36445 5.47899 6.76831 5.60614 7.14288C5.73329 7.51745 5.96866 7.8459 6.28248 8.08671C6.5963 8.32751 6.97448 8.46985 7.36919 8.49572C7.76391 8.52159 8.15743 8.42983 8.5 8.23205" stroke="#A8A8A8"/>
<path d="M11 11.5C15.0802 11.5 16.1335 14.8022 16.4054 16.507C16.4924 17.0524 16.0523 17.5 15.5 17.5H6.49999C5.9477 17.5 5.50762 17.0524 5.5946 16.507C5.86648 14.8022 6.91975 11.5 11 11.5Z" stroke="#A8A8A8" stroke-linecap="round"/>
<path d="M12.0871 11.5859L11.7179 11.2488L11.0974 11.9283L12.0051 12.0791L12.0871 11.5859ZM16.1813 15.5L15.701 15.639L15.8055 16H16.1813V15.5ZM14.5 11C15.5277 11 16.2495 11.5027 16.7783 12.2069C17.3177 12.9253 17.6344 13.8306 17.8115 14.5377L18.7816 14.2948C18.5904 13.5315 18.2329 12.4787 17.578 11.6065C16.9126 10.7203 15.9202 10 14.5 10V11ZM12.4563 11.923C12.9567 11.375 13.6107 11 14.5 11V10C13.2828 10 12.3736 10.5306 11.7179 11.2488L12.4563 11.923ZM12.0051 12.0791C14.3056 12.4614 15.279 14.1801 15.701 15.639L16.6616 15.361C16.1905 13.7326 15.019 11.5663 12.1691 11.0927L12.0051 12.0791ZM17.395 15H16.1813V16H17.395V15ZM17.8115 14.5377C17.8653 14.7526 17.7075 15 17.395 15V16C18.2657 16 19.0152 15.2277 18.7816 14.2948L17.8115 14.5377Z" fill="#A8A8A8"/>
<path d="M9.91291 11.5859L9.99491 12.0791L10.9026 11.9283L10.2821 11.2488L9.91291 11.5859ZM5.81869 15.5V16H6.19454L6.29899 15.639L5.81869 15.5ZM7.5 11C8.38932 11 9.04331 11.375 9.54361 11.923L10.2821 11.2488C9.62641 10.5306 8.71724 10 7.5 10V11ZM4.18846 14.5377C4.36555 13.8306 4.68229 12.9253 5.22168 12.2069C5.75049 11.5027 6.47227 11 7.5 11V10C6.07981 10 5.08744 10.7203 4.422 11.6065C3.76714 12.4787 3.40956 13.5315 3.21842 14.2948L4.18846 14.5377ZM4.60499 15C4.29248 15 4.13466 14.7526 4.18846 14.5377L3.21842 14.2948C2.98478 15.2277 3.73425 16 4.60499 16V15ZM5.81869 15H4.60499V16H5.81869V15ZM6.29899 15.639C6.72105 14.1801 7.69436 12.4614 9.99491 12.0791L9.83091 11.0927C6.98102 11.5663 5.80951 13.7326 5.33839 15.361L6.29899 15.639Z" fill="#A8A8A8"/>
</svg>
