<svg width="20" height="20" viewBox="0 0 20 20" fill="none" xmlns="http://www.w3.org/2000/svg">
<path d="M17.5 4.24563H12.7775V3.2825C12.7767 2.89267 12.6214 2.51906 12.3456 2.24352C12.0698 1.96799 11.6961 1.813 11.3062 1.8125H8.77062C8.38058 1.813 8.00665 1.96816 7.73084 2.24397C7.45504 2.51977 7.29987 2.8937 7.29937 3.28375V4.24563H2.5C2.10995 4.24612 1.73602 4.40129 1.46021 4.67709C1.18441 4.9529 1.02924 5.32683 1.02875 5.71688V16.7169C1.02941 17.1068 1.18465 17.4806 1.46044 17.7563C1.73622 18.0319 2.11006 18.187 2.5 18.1875H17.5C17.89 18.187 18.264 18.0318 18.5398 17.756C18.8156 17.4802 18.9708 17.1063 18.9712 16.7163V5.71688C18.9708 5.32683 18.8156 4.9529 18.5398 4.67709C18.264 4.40129 17.89 4.24612 17.5 4.24563ZM4.01562 17.7456H2.5C2.22737 17.7453 1.96599 17.6369 1.77315 17.4442C1.58031 17.2514 1.47174 16.9901 1.47125 16.7175V5.71688C1.47141 5.44403 1.57983 5.18239 1.77271 4.9894C1.96558 4.79641 2.22715 4.68783 2.5 4.6875H4.01562V17.7456ZM7.7425 3.2825C7.74283 3.00993 7.85126 2.74861 8.04399 2.55587C8.23673 2.36313 8.49805 2.25471 8.77062 2.25438H11.3062C11.5788 2.25471 11.8401 2.36313 12.0329 2.55587C12.2256 2.74861 12.334 3.00993 12.3344 3.2825V4.24563H7.7425V3.2825ZM15.5412 17.7456H4.45875V4.6875H15.5412V10.35L14.2537 9.74188C14.2006 9.71685 14.1397 9.71391 14.0844 9.73371C14.0291 9.75351 13.9839 9.79443 13.9587 9.8475L12.3562 13.2406C12.3437 13.2669 12.3365 13.2954 12.335 13.3244C12.3335 13.3535 12.3377 13.3826 12.3475 13.41C12.3677 13.4649 12.4085 13.5097 12.4612 13.535L15.1606 14.8125C15.2138 14.8375 15.2747 14.8405 15.33 14.8207C15.3853 14.8009 15.4304 14.7599 15.4556 14.7069L15.5412 14.525V17.7456ZM15.1494 14.3125L12.8512 13.2269L14.2644 10.2344L16.5625 11.3225L15.1494 14.3125ZM18.5287 16.715C18.5289 16.9881 18.4206 17.25 18.2277 17.4433C18.0348 17.6365 17.7731 17.7453 17.5 17.7456H15.9844V13.6475C15.983 13.6324 15.9801 13.6176 15.9756 13.6031L17.0581 11.3125C17.0831 11.2594 17.0862 11.1986 17.0669 11.1431C17.0462 11.0883 17.0053 11.0436 16.9525 11.0181L15.9844 10.5625V4.6875H17.5C17.7726 4.68783 18.034 4.79624 18.2268 4.98896C18.4197 5.18168 18.5283 5.44299 18.5287 5.71563V16.715Z" fill="#FF0000"/>
<path d="M13.7694 8.46058C13.7694 7.6837 12.8513 7.07495 11.6794 7.07495C10.5075 7.07495 9.58813 7.6837 9.58813 8.46058C9.58813 9.23745 10.5069 9.84495 11.6794 9.84495C12.8519 9.84495 13.7694 9.23683 13.7694 8.46058ZM11.6794 9.40183C10.7856 9.40183 10.0313 8.9712 10.0313 8.46058C10.0313 7.94995 10.7856 7.51808 11.6794 7.51808C12.5731 7.51808 13.3263 7.94995 13.3263 8.46058C13.3263 8.9712 12.5719 9.40183 11.6794 9.40183Z" fill="#FF0000"/>
<path d="M9.28688 10.805L6.66188 9.56376C6.60881 9.53892 6.54807 9.53609 6.49292 9.55588C6.43777 9.57567 6.39268 9.61647 6.3675 9.66938L5.50313 11.4938C5.49049 11.52 5.4832 11.5485 5.48168 11.5775C5.48016 11.6066 5.48444 11.6357 5.49427 11.6631C5.5041 11.6905 5.51929 11.7156 5.53894 11.7371C5.5586 11.7586 5.58233 11.7759 5.60875 11.7881L8.23688 13.0294C8.26634 13.0435 8.2986 13.0507 8.33125 13.0506C8.35665 13.0509 8.38188 13.0465 8.40563 13.0375C8.43297 13.0278 8.4581 13.0127 8.47956 12.9932C8.50102 12.9737 8.51838 12.9501 8.53063 12.9238L9.39188 11.0994C9.40437 11.0732 9.41155 11.0447 9.41303 11.0157C9.41451 10.9867 9.41025 10.9577 9.40049 10.9304C9.39074 10.903 9.37568 10.8779 9.35619 10.8564C9.33669 10.8349 9.31314 10.8174 9.28688 10.805ZM8.22438 12.5344L6.00001 11.4825L6.6725 10.0588L8.89938 11.1106L8.22438 12.5344Z" fill="#FF0000"/>
</svg>
